<svg id="SvgjsSvg1006" width="958.0183010410155" height="610.9948120117188" xmlns="http://www.w3.org/2000/svg" version="1.1" xmlns:xlink="http://www.w3.org/1999/xlink" xmlns:svgjs="http://svgjs.com/svgjs"><defs id="SvgjsDefs1007"><marker id="SvgjsMarker1118" markerWidth="16" markerHeight="12" refX="0" refY="6" viewBox="0 0 16 12" orient="auto" markerUnits="userSpaceOnUse" stroke-dasharray="0,0"><path id="SvgjsPath1119" d="M1,6 L15,1 L15,11L1,6" fill="#ffffff" stroke="#323232" stroke-width="2"></path></marker><marker id="SvgjsMarker1126" markerWidth="20" markerHeight="12" refX="0" refY="6" viewBox="0 0 20 12" orient="auto" markerUnits="userSpaceOnUse" stroke-dasharray="0,0"><path id="SvgjsPath1127" d="M2,6 L10,2 L18,6 L10,10L2,6" fill="#ffffff" stroke="#323232" stroke-width="2"></path></marker><marker id="SvgjsMarker1130" markerWidth="20" markerHeight="12" refX="20" refY="6" viewBox="0 0 20 12" orient="auto" markerUnits="userSpaceOnUse" stroke-dasharray="0,0"><path id="SvgjsPath1131" d="M2,6 L10,2 L18,6 L10,10L2,6" fill="#ffffff" stroke="#323232" stroke-width="2"></path></marker><marker id="SvgjsMarker1134" markerWidth="20" markerHeight="12" refX="20" refY="6" viewBox="0 0 20 12" orient="auto" markerUnits="userSpaceOnUse" stroke-dasharray="0,0"><path id="SvgjsPath1135" d="M2,6 L10,2 L18,6 L10,10L2,6" fill="#ffffff" stroke="#323232" stroke-width="2"></path></marker><marker id="SvgjsMarker1142" markerWidth="20" markerHeight="12" refX="20" refY="6" viewBox="0 0 20 12" orient="auto" markerUnits="userSpaceOnUse" stroke-dasharray="0,0"><path id="SvgjsPath1143" d="M2,6 L10,2 L18,6 L10,10L2,6" fill="#ffffff" stroke="#323232" stroke-width="2"></path></marker><marker id="SvgjsMarker1150" markerWidth="20" markerHeight="12" refX="20" refY="6" viewBox="0 0 20 12" orient="auto" markerUnits="userSpaceOnUse" stroke-dasharray="0,0"><path id="SvgjsPath1151" d="M2,6 L10,2 L18,6 L10,10L2,6" fill="#ffffff" stroke="#323232" stroke-width="2"></path></marker></defs><g id="SvgjsG1008" transform="translate(328.0104064941406,405.0025939941406)"><path id="SvgjsPath1009" d="M 0 4Q 0 0 4 0L 226 0Q 230 0 230 4L 230 137Q 230 141 226 141L 4 141Q 0 141 0 137Z" stroke="rgba(50,50,50,1)" stroke-width="2" fill-opacity="1" fill="#ffffff"></path><path id="SvgjsPath1010" d="M 0 30L 230 30" stroke="rgba(50,50,50,1)" stroke-width="2" fill="none"></path><path id="SvgjsPath1011" d="M 0 0L 230 0L 230 141L 0 141Z" stroke="none" fill="none"></path><g id="SvgjsG1012"><text id="SvgjsText1013" font-family="微软雅黑" text-anchor="middle" font-size="13px" width="210px" fill="#323232" font-weight="700" align="middle" anchor="middle" family="微软雅黑" size="13px" weight="700" font-style="" opacity="1" y="5.05" transform="rotate(0)"><tspan id="SvgjsTspan1014" dy="16" x="115"><tspan id="SvgjsTspan1015" style="text-decoration:;">Course</tspan></tspan></text></g><g id="SvgjsG1016"><text id="SvgjsText1017" font-family="微软雅黑" text-anchor="start" font-size="13px" width="210px" fill="#323232" font-weight="400" align="middle" anchor="start" family="微软雅黑" size="13px" weight="400" font-style="" opacity="1" y="28.05" transform="rotate(0)"><tspan id="SvgjsTspan1018" dy="16" x="10"><tspan id="SvgjsTspan1019" style="text-decoration:;">Name</tspan></tspan><tspan id="SvgjsTspan1020" dy="16" x="10"><tspan id="SvgjsTspan1021" style="text-decoration:;">type</tspan></tspan><tspan id="SvgjsTspan1022" dy="16" x="10"><tspan id="SvgjsTspan1023" style="text-decoration:;">introduction</tspan></tspan><tspan id="SvgjsTspan1024" dy="16" x="10"><tspan id="SvgjsTspan1025" style="text-decoration:;">school</tspan></tspan><tspan id="SvgjsTspan1026" dy="16" x="10"><tspan id="SvgjsTspan1027" style="text-decoration:;">creation time</tspan></tspan><tspan id="SvgjsTspan1028" dy="16" x="10"><tspan id="SvgjsTspan1029" style="text-decoration:;">price</tspan></tspan><tspan id="SvgjsTspan1030" dy="16" x="10"><tspan id="SvgjsTspan1031" style="text-decoration:;">teacher </tspan></tspan></text></g></g><g id="SvgjsG1032" transform="translate(25.010406494140625,111.00259399414062)"><path id="SvgjsPath1033" d="M 0 4Q 0 0 4 0L 226 0Q 230 0 230 4L 230 56Q 230 60 226 60L 4 60Q 0 60 0 56Z" stroke="rgba(50,50,50,1)" stroke-width="2" fill-opacity="1" fill="#ffffff"></path><path id="SvgjsPath1034" d="M 0 30L 230 30" stroke="rgba(50,50,50,1)" stroke-width="2" fill="none"></path><path id="SvgjsPath1035" d="M 0 0L 230 0L 230 60L 0 60Z" stroke="none" fill="none"></path><g id="SvgjsG1036"><text id="SvgjsText1037" font-family="微软雅黑" text-anchor="middle" font-size="13px" width="210px" fill="#323232" font-weight="700" align="middle" anchor="middle" family="微软雅黑" size="13px" weight="700" font-style="" opacity="1" y="5.05" transform="rotate(0)"><tspan id="SvgjsTspan1038" dy="16" x="115"><tspan id="SvgjsTspan1039" style="text-decoration:;">User</tspan></tspan></text></g><g id="SvgjsG1040"><text id="SvgjsText1041" font-family="微软雅黑" text-anchor="start" font-size="13px" width="210px" fill="#323232" font-weight="400" align="middle" anchor="start" family="微软雅黑" size="13px" weight="400" font-style="" opacity="1" y="35.05" transform="rotate(0)"><tspan id="SvgjsTspan1042" dy="16" x="10"><tspan id="SvgjsTspan1043" style="text-decoration:;">User Information</tspan></tspan></text></g></g><g id="SvgjsG1044" transform="translate(25.010406494140625,220.00259399414062)"><path id="SvgjsPath1045" d="M 0 4Q 0 0 4 0L 226 0Q 230 0 230 4L 230 58Q 230 62 226 62L 4 62Q 0 62 0 58Z" stroke="rgba(50,50,50,1)" stroke-width="2" fill-opacity="1" fill="#ffffff"></path><path id="SvgjsPath1046" d="M 0 30L 230 30" stroke="rgba(50,50,50,1)" stroke-width="2" fill="none"></path><path id="SvgjsPath1047" d="M 0 0L 230 0L 230 62L 0 62Z" stroke="none" fill="none"></path><g id="SvgjsG1048"><text id="SvgjsText1049" font-family="微软雅黑" text-anchor="middle" font-size="13px" width="210px" fill="#323232" font-weight="700" align="middle" anchor="middle" family="微软雅黑" size="13px" weight="700" font-style="" opacity="1" y="5.05" transform="rotate(0)"><tspan id="SvgjsTspan1050" dy="16" x="115"><tspan id="SvgjsTspan1051" style="text-decoration:;">Student</tspan></tspan></text></g><g id="SvgjsG1052"><text id="SvgjsText1053" font-family="微软雅黑" text-anchor="start" font-size="13px" width="210px" fill="#323232" font-weight="400" align="middle" anchor="start" family="微软雅黑" size="13px" weight="400" font-style="" opacity="1" y="28.05" transform="rotate(0)"><tspan id="SvgjsTspan1054" dy="16" x="10"><tspan id="SvgjsTspan1055" style="text-decoration:;">Course List</tspan></tspan><tspan id="SvgjsTspan1056" dy="16" x="10"><tspan id="SvgjsTspan1057" style="text-decoration:;">Order List</tspan></tspan></text></g></g><g id="SvgjsG1058" transform="translate(666.0104064941406,171.00259399414062)"><path id="SvgjsPath1059" d="M 0 4Q 0 0 4 0L 226 0Q 230 0 230 4L 230 105Q 230 109 226 109L 4 109Q 0 109 0 105Z" stroke="rgba(50,50,50,1)" stroke-width="2" fill-opacity="1" fill="#ffffff"></path><path id="SvgjsPath1060" d="M 0 30L 230 30" stroke="rgba(50,50,50,1)" stroke-width="2" fill="none"></path><path id="SvgjsPath1061" d="M 0 0L 230 0L 230 109L 0 109Z" stroke="none" fill="none"></path><g id="SvgjsG1062"><text id="SvgjsText1063" font-family="微软雅黑" text-anchor="middle" font-size="13px" width="210px" fill="#323232" font-weight="700" align="middle" anchor="middle" family="微软雅黑" size="13px" weight="700" font-style="" opacity="1" y="5.05" transform="rotate(0)"><tspan id="SvgjsTspan1064" dy="16" x="115"><tspan id="SvgjsTspan1065" style="text-decoration:;">Order</tspan></tspan></text></g><g id="SvgjsG1066"><text id="SvgjsText1067" font-family="微软雅黑" text-anchor="start" font-size="13px" width="210px" fill="#323232" font-weight="400" align="middle" anchor="start" family="微软雅黑" size="13px" weight="400" font-style="" opacity="1" y="28.05" transform="rotate(0)"><tspan id="SvgjsTspan1068" dy="16" x="10"><tspan id="SvgjsTspan1069" style="text-decoration:;">Price</tspan></tspan><tspan id="SvgjsTspan1070" dy="16" x="10"><tspan id="SvgjsTspan1071" style="text-decoration:;">Course Id</tspan></tspan><tspan id="SvgjsTspan1072" dy="16" x="10"><tspan id="SvgjsTspan1073" style="text-decoration:;">Course Name</tspan></tspan><tspan id="SvgjsTspan1074" dy="16" x="10"><tspan id="SvgjsTspan1075" style="text-decoration:;">Creation Time</tspan></tspan><tspan id="SvgjsTspan1076" dy="16" x="10"><tspan id="SvgjsTspan1077" style="text-decoration:;">Status Information</tspan></tspan></text></g></g><g id="SvgjsG1078" transform="translate(597.0104064941406,25.002593994140625)"><path id="SvgjsPath1079" d="M 0 4Q 0 0 4 0L 226 0Q 230 0 230 4L 230 58Q 230 62 226 62L 4 62Q 0 62 0 58Z" stroke="rgba(50,50,50,1)" stroke-width="2" fill-opacity="1" fill="#ffffff"></path><path id="SvgjsPath1080" d="M 0 30L 230 30" stroke="rgba(50,50,50,1)" stroke-width="2" fill="none"></path><path id="SvgjsPath1081" d="M 0 0L 230 0L 230 62L 0 62Z" stroke="none" fill="none"></path><g id="SvgjsG1082"><text id="SvgjsText1083" font-family="微软雅黑" text-anchor="middle" font-size="13px" width="210px" fill="#323232" font-weight="700" align="middle" anchor="middle" family="微软雅黑" size="13px" weight="700" font-style="" opacity="1" y="5.05" transform="rotate(0)"><tspan id="SvgjsTspan1084" dy="16" x="115"><tspan id="SvgjsTspan1085" style="text-decoration:;">User Information</tspan></tspan></text></g><g id="SvgjsG1086"><text id="SvgjsText1087" font-family="微软雅黑" text-anchor="start" font-size="13px" width="210px" fill="#323232" font-weight="400" align="middle" anchor="start" family="微软雅黑" size="13px" weight="400" font-style="" opacity="1" y="28.05" transform="rotate(0)"><tspan id="SvgjsTspan1088" dy="16" x="10"><tspan id="SvgjsTspan1089" style="text-decoration:;">Balance</tspan></tspan><tspan id="SvgjsTspan1090" dy="16" x="10"><tspan id="SvgjsTspan1091" style="text-decoration:;">Account</tspan></tspan></text></g></g><g id="SvgjsG1092" transform="translate(328.0104064941406,282.0025939941406)"><path id="SvgjsPath1093" d="M 0 4Q 0 0 4 0L 226 0Q 230 0 230 4L 230 56Q 230 60 226 60L 4 60Q 0 60 0 56Z" stroke="rgba(50,50,50,1)" stroke-width="2" fill-opacity="1" fill="#ffffff"></path><path id="SvgjsPath1094" d="M 0 30L 230 30" stroke="rgba(50,50,50,1)" stroke-width="2" fill="none"></path><path id="SvgjsPath1095" d="M 0 0L 230 0L 230 60L 0 60Z" stroke="none" fill="none"></path><g id="SvgjsG1096"><text id="SvgjsText1097" font-family="微软雅黑" text-anchor="middle" font-size="13px" width="210px" fill="#323232" font-weight="700" align="middle" anchor="middle" family="微软雅黑" size="13px" weight="700" font-style="" opacity="1" y="5.05" transform="rotate(0)"><tspan id="SvgjsTspan1098" dy="16" x="115"><tspan id="SvgjsTspan1099" style="text-decoration:;">Course List</tspan></tspan></text></g><g id="SvgjsG1100"><text id="SvgjsText1101" font-family="微软雅黑" text-anchor="start" font-size="13px" width="210px" fill="#323232" font-weight="400" align="middle" anchor="start" family="微软雅黑" size="13px" weight="400" font-style="" opacity="1" y="35.05" transform="rotate(0)"><tspan id="SvgjsTspan1102" dy="16" x="10"><tspan id="SvgjsTspan1103" style="text-decoration:;">+Course</tspan></tspan></text></g></g><g id="SvgjsG1104" transform="translate(328.0104064941406,171.00259399414062)"><path id="SvgjsPath1105" d="M 0 4Q 0 0 4 0L 226 0Q 230 0 230 4L 230 56Q 230 60 226 60L 4 60Q 0 60 0 56Z" stroke="rgba(50,50,50,1)" stroke-width="2" fill-opacity="1" fill="#ffffff"></path><path id="SvgjsPath1106" d="M 0 30L 230 30" stroke="rgba(50,50,50,1)" stroke-width="2" fill="none"></path><path id="SvgjsPath1107" d="M 0 0L 230 0L 230 60L 0 60Z" stroke="none" fill="none"></path><g id="SvgjsG1108"><text id="SvgjsText1109" font-family="微软雅黑" text-anchor="middle" font-size="13px" width="210px" fill="#323232" font-weight="700" align="middle" anchor="middle" family="微软雅黑" size="13px" weight="700" font-style="" opacity="1" y="5.05" transform="rotate(0)"><tspan id="SvgjsTspan1110" dy="16" x="115"><tspan id="SvgjsTspan1111" style="text-decoration:;">Order List</tspan></tspan></text></g><g id="SvgjsG1112"><text id="SvgjsText1113" font-family="微软雅黑" text-anchor="start" font-size="13px" width="210px" fill="#323232" font-weight="400" align="middle" anchor="start" family="微软雅黑" size="13px" weight="400" font-style="" opacity="1" y="35.05" transform="rotate(0)"><tspan id="SvgjsTspan1114" dy="16" x="10"><tspan id="SvgjsTspan1115" style="text-decoration:;">+Order</tspan></tspan></text></g></g><g id="SvgjsG1116"><path id="SvgjsPath1117" d="M140.01040649414062 171.00259399414062L140.01040649414062 195.50259399414062L140.01040649414062 195.50259399414062L140.01040649414062 220.00259399414062" stroke="#323232" stroke-width="2" fill="none" marker-start="url(#SvgjsMarker1118)"></path><rect id="SvgjsRect1120" width="43" height="16" x="118.51040649414062" y="187.50259399414062" fill="#ffffff"></rect><text id="SvgjsText1121" font-family="微软雅黑" text-anchor="middle" font-size="13px" width="43px" fill="#323232" font-weight="400" align="top" anchor="middle" family="微软雅黑" size="13px" weight="400" font-style="" opacity="1" y="185.55259399414064" transform="rotate(0)"><tspan id="SvgjsTspan1122" dy="16" x="140.01040649414062"><tspan id="SvgjsTspan1123" style="text-decoration:;">extend</tspan></tspan></text></g><g id="SvgjsG1124"><path id="SvgjsPath1125" d="M255.01040649414062 251.00259399414062L291.5104064941406 251.00259399414062L291.5104064941406 201.00259399414062L328.0104064941406 201.00259399414062" stroke="#323232" stroke-width="2" fill="none" marker-start="url(#SvgjsMarker1126)"></path></g><g id="SvgjsG1128"><path id="SvgjsPath1129" d="M328.0104064941406 312.0025939941406L291.5104064941406 312.0025939941406L291.5104064941406 251.00259399414062L255.01040649414062 251.00259399414062" stroke="#323232" stroke-width="2" fill="none" marker-end="url(#SvgjsMarker1130)"></path></g><g id="SvgjsG1132"><path id="SvgjsPath1133" d="M597.0104064941406 56.002593994140625L426.0104064941406 56.002593994140625L426.0104064941406 141.00259399414062L255.01040649414062 141.00259399414062" stroke="#323232" stroke-width="2" fill="none" marker-end="url(#SvgjsMarker1134)"></path><rect id="SvgjsRect1136" width="47" height="16" x="402.5104064941406" y="90.50259399414062" fill="#ffffff"></rect><text id="SvgjsText1137" font-family="微软雅黑" text-anchor="middle" font-size="13px" width="47px" fill="#323232" font-weight="400" align="top" anchor="middle" family="微软雅黑" size="13px" weight="400" font-style="" opacity="1" y="88.55259399414062" transform="rotate(0)"><tspan id="SvgjsTspan1138" dy="16" x="426.0104064941406"><tspan id="SvgjsTspan1139" style="text-decoration:;">contain</tspan></tspan></text></g><g id="SvgjsG1140"><path id="SvgjsPath1141" d="M666.0104064941406 201.00259399414062L636.0104064941406 201.00259399414062L636.0104064941406 141.00259399414062L443.0104064941406 141.00259399414062L443.0104064941406 171.00259399414062" stroke="#323232" stroke-width="2" fill="none" marker-end="url(#SvgjsMarker1142)"></path><rect id="SvgjsRect1144" width="53" height="16" x="543.0104064941406" y="133.00259399414062" fill="#ffffff"></rect><text id="SvgjsText1145" font-family="微软雅黑" text-anchor="middle" font-size="13px" width="53px" fill="#323232" font-weight="400" align="top" anchor="middle" family="微软雅黑" size="13px" weight="400" font-style="" opacity="1" y="131.05259399414064" transform="rotate(0)"><tspan id="SvgjsTspan1146" dy="16" x="569.5104064941406"><tspan id="SvgjsTspan1147" style="text-decoration:;">contains</tspan></tspan></text></g><g id="SvgjsG1148"><path id="SvgjsPath1149" d="M443.0104064941406 405.0025939941406L443.0104064941406 373.5025939941406L443.0104064941406 373.5025939941406L443.0104064941406 342.0025939941406" stroke="#323232" stroke-width="2" fill="none" marker-end="url(#SvgjsMarker1150)"></path><rect id="SvgjsRect1152" width="53" height="16" x="416.5104064941406" y="365.5025939941406" fill="#ffffff"></rect><text id="SvgjsText1153" font-family="微软雅黑" text-anchor="middle" font-size="13px" width="53px" fill="#323232" font-weight="400" align="top" anchor="middle" family="微软雅黑" size="13px" weight="400" font-style="" opacity="1" y="363.55259399414064" transform="rotate(0)"><tspan id="SvgjsTspan1154" dy="16" x="443.0104064941406"><tspan id="SvgjsTspan1155" style="text-decoration:;">contains</tspan></tspan></text></g><g id="SvgjsG1156" transform="translate(666.0104064941406,338.5025939941406)"><path id="SvgjsPath1157" d="M 0 4Q 0 0 4 0L 226 0Q 230 0 230 4L 230 56Q 230 60 226 60L 4 60Q 0 60 0 56Z" stroke="rgba(50,50,50,1)" stroke-width="2" fill-opacity="1" fill="#ffffff"></path><path id="SvgjsPath1158" d="M 0 30L 230 30" stroke="rgba(50,50,50,1)" stroke-width="2" fill="none"></path><path id="SvgjsPath1159" d="M 0 0L 230 0L 230 60L 0 60Z" stroke="none" fill="none"></path><g id="SvgjsG1160"><text id="SvgjsText1161" font-family="微软雅黑" text-anchor="middle" font-size="13px" width="210px" fill="#323232" font-weight="700" align="middle" anchor="middle" family="微软雅黑" size="13px" weight="700" font-style="" opacity="1" y="5.05" transform="rotate(0)"><tspan id="SvgjsTspan1162" dy="16" x="115"><tspan id="SvgjsTspan1163" style="text-decoration:;">Order payment</tspan></tspan></text></g><g id="SvgjsG1164"><text id="SvgjsText1165" font-family="微软雅黑" text-anchor="start" font-size="13px" width="210px" fill="#323232" font-weight="400" align="middle" anchor="start" family="微软雅黑" size="13px" weight="400" font-style="" opacity="1" y="35.05" transform="rotate(0)"></text></g></g><g id="SvgjsG1166"><path id="SvgjsPath1167" d="M666.0104064941406 368.5025939941406L636.0104064941406 368.5025939941406L636.0104064941406 225.50259399414062L666.0104064941406 225.50259399414062" stroke="#323232" stroke-width="2" fill="none"></path><rect id="SvgjsRect1168" width="44" height="32" x="614.0104064941406" y="281.0025939941406" fill="#ffffff"></rect><text id="SvgjsText1169" font-family="微软雅黑" text-anchor="middle" font-size="13px" width="44px" fill="#323232" font-weight="400" align="top" anchor="middle" family="微软雅黑" size="13px" weight="400" font-style="" opacity="1" y="279.05259399414064" transform="rotate(0)"><tspan id="SvgjsTspan1170" dy="16" x="636.0104064941406"><tspan id="SvgjsTspan1171" style="text-decoration:;">use</tspan></tspan><tspan id="SvgjsTspan1172" dy="16" x="636.0104064941406"><tspan id="SvgjsTspan1173" style="text-decoration:;">update</tspan></tspan></text></g><g id="SvgjsG1174"><path id="SvgjsPath1175" d="M781.0104064941406 338.5025939941406L781.0104064941406 308.5025939941406L921.0104064941406 308.5025939941406L921.0104064941406 56.002593994140625L827.0104064941406 56.002593994140625" stroke="#323232" stroke-width="2" fill="none"></path><rect id="SvgjsRect1176" width="44" height="32" x="899.0104064941406" y="204.25259399414062" fill="#ffffff"></rect><text id="SvgjsText1177" font-family="微软雅黑" text-anchor="middle" font-size="13px" width="44px" fill="#323232" font-weight="400" align="top" anchor="middle" family="微软雅黑" size="13px" weight="400" font-style="" opacity="1" y="202.30259399414064" transform="rotate(0)"><tspan id="SvgjsTspan1178" dy="16" x="921.0104064941406"><tspan id="SvgjsTspan1179" style="text-decoration:;">use</tspan></tspan><tspan id="SvgjsTspan1180" dy="16" x="921.0104064941406"><tspan id="SvgjsTspan1181" style="text-decoration:;">update</tspan></tspan></text></g><g id="SvgjsG1182"><path id="SvgjsPath1183" d="M781.0104064941406 398.5025939941406L781.0104064941406 428.5025939941406L588.0104064941406 428.5025939941406L588.0104064941406 312.0025939941406L558.0104064941406 312.0025939941406" stroke="#323232" stroke-width="2" fill="none"></path><rect id="SvgjsRect1184" width="44" height="32" x="604.2604064941406" y="412.5025939941406" fill="#ffffff"></rect><text id="SvgjsText1185" font-family="微软雅黑" text-anchor="middle" font-size="13px" width="44px" fill="#323232" font-weight="400" align="top" anchor="middle" family="微软雅黑" size="13px" weight="400" font-style="" opacity="1" y="410.55259399414064" transform="rotate(0)"><tspan id="SvgjsTspan1186" dy="16" x="626.2604064941406"><tspan id="SvgjsTspan1187" style="text-decoration:;">use</tspan></tspan><tspan id="SvgjsTspan1188" dy="16" x="626.2604064941406"><tspan id="SvgjsTspan1189" style="text-decoration:;">update</tspan></tspan></text></g><g id="SvgjsG1190"><path id="SvgjsPath1191" d="M140.01040649414062 282.0025939941406L140.01040649414062 586.2525939941406L926.0104064941406 586.2525939941406L926.0104064941406 368.5025939941406L896.0104064941406 368.5025939941406" stroke="#323232" stroke-width="2" fill="none"></path><rect id="SvgjsRect1192" width="53" height="16" x="478.2604064941406" y="578.2525939941406" fill="#ffffff"></rect><text id="SvgjsText1193" font-family="微软雅黑" text-anchor="middle" font-size="13px" width="53px" fill="#323232" font-weight="400" align="top" anchor="middle" family="微软雅黑" size="13px" weight="400" font-style="" opacity="1" y="576.3025939941406" transform="rotate(0)"><tspan id="SvgjsTspan1194" dy="16" x="504.7604064941406"><tspan id="SvgjsTspan1195" style="text-decoration:;">involved</tspan></tspan></text></g><g id="SvgjsG1196" transform="translate(260.0104064941406,109.50259971618652)"><path id="SvgjsPath1197" d="M 0 0L 20 0L 20 21L 0 21Z" stroke="none" fill="none"></path><g id="SvgjsG1198"><text id="SvgjsText1199" font-family="微软雅黑" text-anchor="middle" font-size="13px" width="20px" fill="#323232" font-weight="400" align="middle" anchor="middle" family="微软雅黑" size="13px" weight="400" font-style="" opacity="1" y="0.55" transform="rotate(0)"><tspan id="SvgjsTspan1200" dy="16" x="10"><tspan id="SvgjsTspan1201" style="text-decoration:;">1</tspan></tspan></text></g></g><g id="SvgjsG1202" transform="translate(574.0104064941406,33.50259971618652)"><path id="SvgjsPath1203" d="M 0 0L 23 0L 23 23L 0 23Z" stroke="none" fill="none"></path><g id="SvgjsG1204"><text id="SvgjsText1205" font-family="微软雅黑" text-anchor="middle" font-size="13px" width="23px" fill="#323232" font-weight="400" align="middle" anchor="middle" family="微软雅黑" size="13px" weight="400" font-style="" opacity="1" y="1.55" transform="rotate(0)"><tspan id="SvgjsTspan1206" dy="16" x="11.5"><tspan id="SvgjsTspan1207" style="text-decoration:;">1</tspan></tspan></text></g></g><g id="SvgjsG1208" transform="translate(144.01040649414062,287.0026054382324)"><path id="SvgjsPath1209" d="M 0 0L 27 0L 27 32L 0 32Z" stroke="none" fill="none"></path><g id="SvgjsG1210"><text id="SvgjsText1211" font-family="微软雅黑" text-anchor="middle" font-size="13px" width="27px" fill="#323232" font-weight="400" align="middle" anchor="middle" family="微软雅黑" size="13px" weight="400" font-style="" opacity="1" y="6.05" transform="rotate(0)"><tspan id="SvgjsTspan1212" dy="16" x="13.5"><tspan id="SvgjsTspan1213" style="text-decoration:;">0..*</tspan></tspan></text></g></g><g id="SvgjsG1214" transform="translate(899.0104064941406,346.0026054382324)"><path id="SvgjsPath1215" d="M 0 0L 21 0L 21 21L 0 21Z" stroke="none" fill="none"></path><g id="SvgjsG1216"><text id="SvgjsText1217" font-family="微软雅黑" text-anchor="middle" font-size="13px" width="21px" fill="#323232" font-weight="400" align="middle" anchor="middle" family="微软雅黑" size="13px" weight="400" font-style="" opacity="1" y="0.55" transform="rotate(0)"><tspan id="SvgjsTspan1218" dy="16" x="10.5"><tspan id="SvgjsTspan1219" style="text-decoration:;">1</tspan></tspan></text></g></g><g id="SvgjsG1220" transform="translate(163.01040649414062,302.0026054382324)"><path id="SvgjsPath1221" d="M 0 0L 59 0L 59 53L 0 53Z" stroke="none" fill="none"></path><g id="SvgjsG1222"><text id="SvgjsText1223" font-family="微软雅黑" text-anchor="middle" font-size="13px" width="59px" fill="#323232" font-weight="400" align="middle" anchor="middle" family="微软雅黑" size="13px" weight="400" font-style="" opacity="1" y="16.55" transform="rotate(0)"></text></g></g><g id="SvgjsG1224" transform="translate(256.0104064941406,225.00260543823242)"><path id="SvgjsPath1225" d="M 0 0L 27 0L 27 28L 0 28Z" stroke="none" fill="none"></path><g id="SvgjsG1226"><text id="SvgjsText1227" font-family="微软雅黑" text-anchor="middle" font-size="13px" width="27px" fill="#323232" font-weight="400" align="middle" anchor="middle" family="微软雅黑" size="13px" weight="400" font-style="" opacity="1" y="4.05" transform="rotate(0)"><tspan id="SvgjsTspan1228" dy="16" x="13.5"><tspan id="SvgjsTspan1229" style="text-decoration:;">1</tspan></tspan></text></g></g><g id="SvgjsG1230" transform="translate(308.0104064941406,178.00260543823242)"><path id="SvgjsPath1231" d="M 0 0L 20 0L 20 23L 0 23Z" stroke="none" fill="none"></path><g id="SvgjsG1232"><text id="SvgjsText1233" font-family="微软雅黑" text-anchor="middle" font-size="13px" width="20px" fill="#323232" font-weight="400" align="middle" anchor="middle" family="微软雅黑" size="13px" weight="400" font-style="" opacity="1" y="1.55" transform="rotate(0)"><tspan id="SvgjsTspan1234" dy="16" x="10"><tspan id="SvgjsTspan1235" style="text-decoration:;">1</tspan></tspan></text></g></g><g id="SvgjsG1236" transform="translate(311.0104064941406,282.0026054382324)"><path id="SvgjsPath1237" d="M 0 0L 21 0L 21 29L 0 29Z" stroke="none" fill="none"></path><g id="SvgjsG1238"><text id="SvgjsText1239" font-family="微软雅黑" text-anchor="middle" font-size="13px" width="21px" fill="#323232" font-weight="400" align="middle" anchor="middle" family="微软雅黑" size="13px" weight="400" font-style="" opacity="1" y="4.55" transform="rotate(0)"><tspan id="SvgjsTspan1240" dy="16" x="10.5"><tspan id="SvgjsTspan1241" style="text-decoration:;">1</tspan></tspan></text></g></g><g id="SvgjsG1242" transform="translate(455.0104064941406,140.00260543823242)"><path id="SvgjsPath1243" d="M 0 0L 26 0L 26 23L 0 23Z" stroke="none" fill="none"></path><g id="SvgjsG1244"><text id="SvgjsText1245" font-family="微软雅黑" text-anchor="middle" font-size="13px" width="26px" fill="#323232" font-weight="400" align="middle" anchor="middle" family="微软雅黑" size="13px" weight="400" font-style="" opacity="1" y="1.55" transform="rotate(0)"><tspan id="SvgjsTspan1246" dy="16" x="13"><tspan id="SvgjsTspan1247" style="text-decoration:;">1</tspan></tspan></text></g></g><g id="SvgjsG1248" transform="translate(641.0104064941406,167.00260543823242)"><path id="SvgjsPath1249" d="M 0 0L 25 0L 25 28L 0 28Z" stroke="none" fill="none"></path><g id="SvgjsG1250"><text id="SvgjsText1251" font-family="微软雅黑" text-anchor="middle" font-size="13px" width="25px" fill="#323232" font-weight="400" align="middle" anchor="middle" family="微软雅黑" size="13px" weight="400" font-style="" opacity="1" y="4.05" transform="rotate(0)"><tspan id="SvgjsTspan1252" dy="16" x="12.5"><tspan id="SvgjsTspan1253" style="text-decoration:;">0..*</tspan></tspan></text></g></g><g id="SvgjsG1254" transform="translate(473.5104064941406,383.0026054382324)"><path id="SvgjsPath1255" d="M 0 0L 25 0L 25 28L 0 28Z" stroke="none" fill="none"></path><g id="SvgjsG1256"><text id="SvgjsText1257" font-family="微软雅黑" text-anchor="middle" font-size="13px" width="25px" fill="#323232" font-weight="400" align="middle" anchor="middle" family="微软雅黑" size="13px" weight="400" font-style="" opacity="1" y="4.05" transform="rotate(0)"><tspan id="SvgjsTspan1258" dy="16" x="12.5"><tspan id="SvgjsTspan1259" style="text-decoration:;">0..*</tspan></tspan></text></g></g><g id="SvgjsG1260" transform="translate(406.0104064941406,345.0026054382324)"><path id="SvgjsPath1261" d="M 0 0L 20 0L 20 23L 0 23Z" stroke="none" fill="none"></path><g id="SvgjsG1262"><text id="SvgjsText1263" font-family="微软雅黑" text-anchor="middle" font-size="13px" width="20px" fill="#323232" font-weight="400" align="middle" anchor="middle" family="微软雅黑" size="13px" weight="400" font-style="" opacity="1" y="1.55" transform="rotate(0)"><tspan id="SvgjsTspan1264" dy="16" x="10"><tspan id="SvgjsTspan1265" style="text-decoration:;">1</tspan></tspan></text></g></g><g id="SvgjsG1266" transform="translate(785.0104064941406,398.5025939941406)"><path id="SvgjsPath1267" d="M 0 0L 20 0L 20 23L 0 23Z" stroke="none" fill="none"></path><g id="SvgjsG1268"><text id="SvgjsText1269" font-family="微软雅黑" text-anchor="middle" font-size="13px" width="20px" fill="#323232" font-weight="400" align="middle" anchor="middle" family="微软雅黑" size="13px" weight="400" font-style="" opacity="1" y="1.55" transform="rotate(0)"><tspan id="SvgjsTspan1270" dy="16" x="10"><tspan id="SvgjsTspan1271" style="text-decoration:;">1</tspan></tspan></text></g></g><g id="SvgjsG1272" transform="translate(563.0104064941406,285.0026054382324)"><path id="SvgjsPath1273" d="M 0 0L 20 0L 20 23L 0 23Z" stroke="none" fill="none"></path><g id="SvgjsG1274"><text id="SvgjsText1275" font-family="微软雅黑" text-anchor="middle" font-size="13px" width="20px" fill="#323232" font-weight="400" align="middle" anchor="middle" family="微软雅黑" size="13px" weight="400" font-style="" opacity="1" y="1.55" transform="rotate(0)"><tspan id="SvgjsTspan1276" dy="16" x="10"><tspan id="SvgjsTspan1277" style="text-decoration:;">1</tspan></tspan></text></g></g><g id="SvgjsG1278" transform="translate(643.5104064941406,236.50260543823242)"><path id="SvgjsPath1279" d="M 0 0L 20 0L 20 23L 0 23Z" stroke="none" fill="none"></path><g id="SvgjsG1280"><text id="SvgjsText1281" font-family="微软雅黑" text-anchor="middle" font-size="13px" width="20px" fill="#323232" font-weight="400" align="middle" anchor="middle" family="微软雅黑" size="13px" weight="400" font-style="" opacity="1" y="1.55" transform="rotate(0)"><tspan id="SvgjsTspan1282" dy="16" x="10"><tspan id="SvgjsTspan1283" style="text-decoration:;">1</tspan></tspan></text></g></g><g id="SvgjsG1284" transform="translate(756.0104064941406,317.0026054382324)"><path id="SvgjsPath1285" d="M 0 0L 20 0L 20 23L 0 23Z" stroke="none" fill="none"></path><g id="SvgjsG1286"><text id="SvgjsText1287" font-family="微软雅黑" text-anchor="middle" font-size="13px" width="20px" fill="#323232" font-weight="400" align="middle" anchor="middle" family="微软雅黑" size="13px" weight="400" font-style="" opacity="1" y="1.55" transform="rotate(0)"><tspan id="SvgjsTspan1288" dy="16" x="10"><tspan id="SvgjsTspan1289" style="text-decoration:;">1</tspan></tspan></text></g></g><g id="SvgjsG1290" transform="translate(643.5104064941406,370.5026054382324)"><path id="SvgjsPath1291" d="M 0 0L 20 0L 20 23L 0 23Z" stroke="none" fill="none"></path><g id="SvgjsG1292"><text id="SvgjsText1293" font-family="微软雅黑" text-anchor="middle" font-size="13px" width="20px" fill="#323232" font-weight="400" align="middle" anchor="middle" family="微软雅黑" size="13px" weight="400" font-style="" opacity="1" y="1.55" transform="rotate(0)"><tspan id="SvgjsTspan1294" dy="16" x="10"><tspan id="SvgjsTspan1295" style="text-decoration:;">1</tspan></tspan></text></g></g><g id="SvgjsG1296" transform="translate(832.0104064941406,33.50259971618652)"><path id="SvgjsPath1297" d="M 0 0L 20 0L 20 23L 0 23Z" stroke="none" fill="none"></path><g id="SvgjsG1298"><text id="SvgjsText1299" font-family="微软雅黑" text-anchor="middle" font-size="13px" width="20px" fill="#323232" font-weight="400" align="middle" anchor="middle" family="微软雅黑" size="13px" weight="400" font-style="" opacity="1" y="1.55" transform="rotate(0)"><tspan id="SvgjsTspan1300" dy="16" x="10"><tspan id="SvgjsTspan1301" style="text-decoration:;">1</tspan></tspan></text></g></g></svg>