<svg id="SvgjsSvg1222" width="951" height="525.0052337646484" xmlns="http://www.w3.org/2000/svg" version="1.1" xmlns:xlink="http://www.w3.org/1999/xlink" xmlns:svgjs="http://svgjs.com/svgjs"><defs id="SvgjsDefs1223"><marker id="SvgjsMarker1320" markerWidth="16" markerHeight="12" refX="0" refY="6" viewBox="0 0 16 12" orient="auto" markerUnits="userSpaceOnUse" stroke-dasharray="0,0"><path id="SvgjsPath1321" d="M1,6 L15,1 L15,11L1,6" fill="#ffffff" stroke="#323232" stroke-width="2"></path></marker><marker id="SvgjsMarker1324" markerWidth="20" markerHeight="12" refX="0" refY="6" viewBox="0 0 20 12" orient="auto" markerUnits="userSpaceOnUse" stroke-dasharray="0,0"><path id="SvgjsPath1325" d="M2,6 L10,2 L18,6 L10,10L2,6" fill="#ffffff" stroke="#323232" stroke-width="2"></path></marker><marker id="SvgjsMarker1328" markerWidth="20" markerHeight="12" refX="20" refY="6" viewBox="0 0 20 12" orient="auto" markerUnits="userSpaceOnUse" stroke-dasharray="0,0"><path id="SvgjsPath1329" d="M2,6 L10,2 L18,6 L10,10L2,6" fill="#ffffff" stroke="#323232" stroke-width="2"></path></marker><marker id="SvgjsMarker1332" markerWidth="20" markerHeight="12" refX="20" refY="6" viewBox="0 0 20 12" orient="auto" markerUnits="userSpaceOnUse" stroke-dasharray="0,0"><path id="SvgjsPath1333" d="M2,6 L10,2 L18,6 L10,10L2,6" fill="#ffffff" stroke="#323232" stroke-width="2"></path></marker><marker id="SvgjsMarker1336" markerWidth="20" markerHeight="12" refX="20" refY="6" viewBox="0 0 20 12" orient="auto" markerUnits="userSpaceOnUse" stroke-dasharray="0,0"><path id="SvgjsPath1337" d="M2,6 L10,2 L18,6 L10,10L2,6" fill="#ffffff" stroke="#323232" stroke-width="2"></path></marker></defs><g id="SvgjsG1224" transform="translate(328.0104064941406,319.0130100250244)"><path id="SvgjsPath1225" d="M 0 4Q 0 0 4 0L 226 0Q 230 0 230 4L 230 137Q 230 141 226 141L 4 141Q 0 141 0 137Z" stroke="rgba(50,50,50,1)" stroke-width="2" fill-opacity="1" fill="#ffffff"></path><path id="SvgjsPath1226" d="M 0 30L 230 30" stroke="rgba(50,50,50,1)" stroke-width="2" fill="none"></path><path id="SvgjsPath1227" d="M 0 0L 230 0L 230 141L 0 141Z" stroke="none" fill="none"></path><g id="SvgjsG1228"><text id="SvgjsText1229" font-family="微软雅黑" text-anchor="middle" font-size="13px" width="210px" fill="#323232" font-weight="700" align="middle" anchor="middle" family="微软雅黑" size="13px" weight="700" font-style="" opacity="1" y="5.05" transform="rotate(0)"><tspan id="SvgjsTspan1230" dy="16" x="115"><tspan id="SvgjsTspan1231" style="text-decoration:;">Course</tspan></tspan></text></g><g id="SvgjsG1232"><text id="SvgjsText1233" font-family="微软雅黑" text-anchor="start" font-size="13px" width="210px" fill="#323232" font-weight="400" align="middle" anchor="start" family="微软雅黑" size="13px" weight="400" font-style="" opacity="1" y="28.05" transform="rotate(0)"><tspan id="SvgjsTspan1234" dy="16" x="10"><tspan id="SvgjsTspan1235" style="text-decoration:;">Name</tspan></tspan><tspan id="SvgjsTspan1236" dy="16" x="10"><tspan id="SvgjsTspan1237" style="text-decoration:;">type</tspan></tspan><tspan id="SvgjsTspan1238" dy="16" x="10"><tspan id="SvgjsTspan1239" style="text-decoration:;">introduction</tspan></tspan><tspan id="SvgjsTspan1240" dy="16" x="10"><tspan id="SvgjsTspan1241" style="text-decoration:;">school</tspan></tspan><tspan id="SvgjsTspan1242" dy="16" x="10"><tspan id="SvgjsTspan1243" style="text-decoration:;">creation time</tspan></tspan><tspan id="SvgjsTspan1244" dy="16" x="10"><tspan id="SvgjsTspan1245" style="text-decoration:;">price</tspan></tspan><tspan id="SvgjsTspan1246" dy="16" x="10"><tspan id="SvgjsTspan1247" style="text-decoration:;">teacher </tspan></tspan></text></g></g><g id="SvgjsG1248" transform="translate(25.010406494140625,25.013010025024414)"><path id="SvgjsPath1249" d="M 0 4Q 0 0 4 0L 226 0Q 230 0 230 4L 230 56Q 230 60 226 60L 4 60Q 0 60 0 56Z" stroke="rgba(50,50,50,1)" stroke-width="2" fill-opacity="1" fill="#ffffff"></path><path id="SvgjsPath1250" d="M 0 30L 230 30" stroke="rgba(50,50,50,1)" stroke-width="2" fill="none"></path><path id="SvgjsPath1251" d="M 0 0L 230 0L 230 60L 0 60Z" stroke="none" fill="none"></path><g id="SvgjsG1252"><text id="SvgjsText1253" font-family="微软雅黑" text-anchor="middle" font-size="13px" width="210px" fill="#323232" font-weight="700" align="middle" anchor="middle" family="微软雅黑" size="13px" weight="700" font-style="" opacity="1" y="5.05" transform="rotate(0)"><tspan id="SvgjsTspan1254" dy="16" x="115"><tspan id="SvgjsTspan1255" style="text-decoration:;">User</tspan></tspan></text></g><g id="SvgjsG1256"><text id="SvgjsText1257" font-family="微软雅黑" text-anchor="start" font-size="13px" width="210px" fill="#323232" font-weight="400" align="middle" anchor="start" family="微软雅黑" size="13px" weight="400" font-style="" opacity="1" y="35.05" transform="rotate(0)"><tspan id="SvgjsTspan1258" dy="16" x="10"><tspan id="SvgjsTspan1259" style="text-decoration:;">User Information</tspan></tspan></text></g></g><g id="SvgjsG1260" transform="translate(25.010406494140625,134.0130100250244)"><path id="SvgjsPath1261" d="M 0 4Q 0 0 4 0L 226 0Q 230 0 230 4L 230 58Q 230 62 226 62L 4 62Q 0 62 0 58Z" stroke="rgba(50,50,50,1)" stroke-width="2" fill-opacity="1" fill="#ffffff"></path><path id="SvgjsPath1262" d="M 0 30L 230 30" stroke="rgba(50,50,50,1)" stroke-width="2" fill="none"></path><path id="SvgjsPath1263" d="M 0 0L 230 0L 230 62L 0 62Z" stroke="none" fill="none"></path><g id="SvgjsG1264"><text id="SvgjsText1265" font-family="微软雅黑" text-anchor="middle" font-size="13px" width="210px" fill="#323232" font-weight="700" align="middle" anchor="middle" family="微软雅黑" size="13px" weight="700" font-style="" opacity="1" y="5.05" transform="rotate(0)"><tspan id="SvgjsTspan1266" dy="16" x="115"><tspan id="SvgjsTspan1267" style="text-decoration:;">Student</tspan></tspan></text></g><g id="SvgjsG1268"><text id="SvgjsText1269" font-family="微软雅黑" text-anchor="start" font-size="13px" width="210px" fill="#323232" font-weight="400" align="middle" anchor="start" family="微软雅黑" size="13px" weight="400" font-style="" opacity="1" y="28.05" transform="rotate(0)"><tspan id="SvgjsTspan1270" dy="16" x="10"><tspan id="SvgjsTspan1271" style="text-decoration:;">Course List</tspan></tspan><tspan id="SvgjsTspan1272" dy="16" x="10"><tspan id="SvgjsTspan1273" style="text-decoration:;">Order List</tspan></tspan></text></g></g><g id="SvgjsG1274" transform="translate(666.0104064941406,85.01301002502441)"><path id="SvgjsPath1275" d="M 0 4Q 0 0 4 0L 226 0Q 230 0 230 4L 230 105Q 230 109 226 109L 4 109Q 0 109 0 105Z" stroke="rgba(50,50,50,1)" stroke-width="2" fill-opacity="1" fill="#ffffff"></path><path id="SvgjsPath1276" d="M 0 30L 230 30" stroke="rgba(50,50,50,1)" stroke-width="2" fill="none"></path><path id="SvgjsPath1277" d="M 0 0L 230 0L 230 109L 0 109Z" stroke="none" fill="none"></path><g id="SvgjsG1278"><text id="SvgjsText1279" font-family="微软雅黑" text-anchor="middle" font-size="13px" width="210px" fill="#323232" font-weight="700" align="middle" anchor="middle" family="微软雅黑" size="13px" weight="700" font-style="" opacity="1" y="5.05" transform="rotate(0)"><tspan id="SvgjsTspan1280" dy="16" x="115"><tspan id="SvgjsTspan1281" style="text-decoration:;">Order</tspan></tspan></text></g><g id="SvgjsG1282"><text id="SvgjsText1283" font-family="微软雅黑" text-anchor="start" font-size="13px" width="210px" fill="#323232" font-weight="400" align="middle" anchor="start" family="微软雅黑" size="13px" weight="400" font-style="" opacity="1" y="28.05" transform="rotate(0)"><tspan id="SvgjsTspan1284" dy="16" x="10"><tspan id="SvgjsTspan1285" style="text-decoration:;">Price</tspan></tspan><tspan id="SvgjsTspan1286" dy="16" x="10"><tspan id="SvgjsTspan1287" style="text-decoration:;">Course Id</tspan></tspan><tspan id="SvgjsTspan1288" dy="16" x="10"><tspan id="SvgjsTspan1289" style="text-decoration:;">Course Name</tspan></tspan><tspan id="SvgjsTspan1290" dy="16" x="10"><tspan id="SvgjsTspan1291" style="text-decoration:;">Creation Time</tspan></tspan><tspan id="SvgjsTspan1292" dy="16" x="10"><tspan id="SvgjsTspan1293" style="text-decoration:;">Status Information</tspan></tspan></text></g></g><g id="SvgjsG1294" transform="translate(328.0104064941406,196.0130100250244)"><path id="SvgjsPath1295" d="M 0 4Q 0 0 4 0L 226 0Q 230 0 230 4L 230 56Q 230 60 226 60L 4 60Q 0 60 0 56Z" stroke="rgba(50,50,50,1)" stroke-width="2" fill-opacity="1" fill="#ffffff"></path><path id="SvgjsPath1296" d="M 0 30L 230 30" stroke="rgba(50,50,50,1)" stroke-width="2" fill="none"></path><path id="SvgjsPath1297" d="M 0 0L 230 0L 230 60L 0 60Z" stroke="none" fill="none"></path><g id="SvgjsG1298"><text id="SvgjsText1299" font-family="微软雅黑" text-anchor="middle" font-size="13px" width="210px" fill="#323232" font-weight="700" align="middle" anchor="middle" family="微软雅黑" size="13px" weight="700" font-style="" opacity="1" y="5.05" transform="rotate(0)"><tspan id="SvgjsTspan1300" dy="16" x="115"><tspan id="SvgjsTspan1301" style="text-decoration:;">Course List</tspan></tspan></text></g><g id="SvgjsG1302"><text id="SvgjsText1303" font-family="微软雅黑" text-anchor="start" font-size="13px" width="210px" fill="#323232" font-weight="400" align="middle" anchor="start" family="微软雅黑" size="13px" weight="400" font-style="" opacity="1" y="35.05" transform="rotate(0)"><tspan id="SvgjsTspan1304" dy="16" x="10"><tspan id="SvgjsTspan1305" style="text-decoration:;">+Course</tspan></tspan></text></g></g><g id="SvgjsG1306" transform="translate(328.0104064941406,85.01301002502441)"><path id="SvgjsPath1307" d="M 0 4Q 0 0 4 0L 226 0Q 230 0 230 4L 230 56Q 230 60 226 60L 4 60Q 0 60 0 56Z" stroke="rgba(50,50,50,1)" stroke-width="2" fill-opacity="1" fill="#ffffff"></path><path id="SvgjsPath1308" d="M 0 30L 230 30" stroke="rgba(50,50,50,1)" stroke-width="2" fill="none"></path><path id="SvgjsPath1309" d="M 0 0L 230 0L 230 60L 0 60Z" stroke="none" fill="none"></path><g id="SvgjsG1310"><text id="SvgjsText1311" font-family="微软雅黑" text-anchor="middle" font-size="13px" width="210px" fill="#323232" font-weight="700" align="middle" anchor="middle" family="微软雅黑" size="13px" weight="700" font-style="" opacity="1" y="5.05" transform="rotate(0)"><tspan id="SvgjsTspan1312" dy="16" x="115"><tspan id="SvgjsTspan1313" style="text-decoration:;">Order List</tspan></tspan></text></g><g id="SvgjsG1314"><text id="SvgjsText1315" font-family="微软雅黑" text-anchor="start" font-size="13px" width="210px" fill="#323232" font-weight="400" align="middle" anchor="start" family="微软雅黑" size="13px" weight="400" font-style="" opacity="1" y="35.05" transform="rotate(0)"><tspan id="SvgjsTspan1316" dy="16" x="10"><tspan id="SvgjsTspan1317" style="text-decoration:;">+Order</tspan></tspan></text></g></g><g id="SvgjsG1318"><path id="SvgjsPath1319" d="M140.01040649414062 85.01301002502441L140.01040649414062 109.51301002502441L140.01040649414062 109.51301002502441L140.01040649414062 134.0130100250244" stroke="#323232" stroke-width="2" fill="none" marker-start="url(#SvgjsMarker1320)"></path></g><g id="SvgjsG1322"><path id="SvgjsPath1323" d="M255.01040649414062 165.0130100250244L291.5104064941406 165.0130100250244L291.5104064941406 115.01301002502441L328.0104064941406 115.01301002502441" stroke="#323232" stroke-width="2" fill="none" marker-start="url(#SvgjsMarker1324)"></path></g><g id="SvgjsG1326"><path id="SvgjsPath1327" d="M328.0104064941406 226.0130100250244L291.5104064941406 226.0130100250244L291.5104064941406 165.0130100250244L255.01040649414062 165.0130100250244" stroke="#323232" stroke-width="2" fill="none" marker-end="url(#SvgjsMarker1328)"></path></g><g id="SvgjsG1330"><path id="SvgjsPath1331" d="M666.0104064941406 115.01301002502441L636.0104064941406 115.01301002502441L636.0104064941406 55.013010025024414L443.0104064941406 55.013010025024414L443.0104064941406 85.01301002502441" stroke="#323232" stroke-width="2" fill="none" marker-end="url(#SvgjsMarker1332)"></path></g><g id="SvgjsG1334"><path id="SvgjsPath1335" d="M443.0104064941406 319.0130100250244L443.0104064941406 287.5130100250244L443.0104064941406 287.5130100250244L443.0104064941406 256.0130100250244" stroke="#323232" stroke-width="2" fill="none" marker-end="url(#SvgjsMarker1336)"></path></g><g id="SvgjsG1338" transform="translate(666.0104064941406,252.5130100250244)"><path id="SvgjsPath1339" d="M 0 4Q 0 0 4 0L 226 0Q 230 0 230 4L 230 56Q 230 60 226 60L 4 60Q 0 60 0 56Z" stroke="rgba(50,50,50,1)" stroke-width="2" fill-opacity="1" fill="#ffffff"></path><path id="SvgjsPath1340" d="M 0 30L 230 30" stroke="rgba(50,50,50,1)" stroke-width="2" fill="none"></path><path id="SvgjsPath1341" d="M 0 0L 230 0L 230 60L 0 60Z" stroke="none" fill="none"></path><g id="SvgjsG1342"><text id="SvgjsText1343" font-family="微软雅黑" text-anchor="middle" font-size="13px" width="210px" fill="#323232" font-weight="700" align="middle" anchor="middle" family="微软雅黑" size="13px" weight="700" font-style="" opacity="1" y="5.05" transform="rotate(0)"><tspan id="SvgjsTspan1344" dy="16" x="115"><tspan id="SvgjsTspan1345" style="text-decoration:;">View Course List</tspan></tspan></text></g><g id="SvgjsG1346"><text id="SvgjsText1347" font-family="微软雅黑" text-anchor="start" font-size="13px" width="210px" fill="#323232" font-weight="400" align="middle" anchor="start" family="微软雅黑" size="13px" weight="400" font-style="" opacity="1" y="35.05" transform="rotate(0)"></text></g></g><g id="SvgjsG1348"><path id="SvgjsPath1349" d="M666.0104064941406 282.5130100250244L612.0104064941406 282.5130100250244L612.0104064941406 226.0130100250244L558.0104064941406 226.0130100250244" stroke="#323232" stroke-width="2" fill="none"></path><rect id="SvgjsRect1350" width="22" height="16" x="601.0104064941406" y="246.2630100250244" fill="#ffffff"></rect><text id="SvgjsText1351" font-family="微软雅黑" text-anchor="middle" font-size="13px" width="22px" fill="#323232" font-weight="400" align="top" anchor="middle" family="微软雅黑" size="13px" weight="400" font-style="" opacity="1" y="244.31301002502443" transform="rotate(0)"><tspan id="SvgjsTspan1352" dy="16" x="612.0104064941406"><tspan id="SvgjsTspan1353" style="text-decoration:;">use</tspan></tspan></text></g><g id="SvgjsG1354"><path id="SvgjsPath1355" d="M140.01040649414062 196.0130100250244L140.01040649414062 500.2630100250244L926.0104064941406 500.2630100250244L926.0104064941406 282.5130100250244L896.0104064941406 282.5130100250244" stroke="#323232" stroke-width="2" fill="none"></path><rect id="SvgjsRect1356" width="53" height="16" x="478.2604064941406" y="492.2630100250244" fill="#ffffff"></rect><text id="SvgjsText1357" font-family="微软雅黑" text-anchor="middle" font-size="13px" width="53px" fill="#323232" font-weight="400" align="top" anchor="middle" family="微软雅黑" size="13px" weight="400" font-style="" opacity="1" y="490.3130100250244" transform="rotate(0)"><tspan id="SvgjsTspan1358" dy="16" x="504.7604064941406"><tspan id="SvgjsTspan1359" style="text-decoration:;">involved</tspan></tspan></text></g><g id="SvgjsG1360" transform="translate(146.01040649414062,86.01301002502441)"><path id="SvgjsPath1361" d="M 0 0L 24 0L 24 28L 0 28Z" stroke="none" fill="none"></path><g id="SvgjsG1362"><text id="SvgjsText1363" font-family="微软雅黑" text-anchor="middle" font-size="13px" width="24px" fill="#323232" font-weight="400" align="middle" anchor="middle" family="微软雅黑" size="13px" weight="400" font-style="" opacity="1" y="4.05" transform="rotate(0)"><tspan id="SvgjsTspan1364" dy="16" x="12"><tspan id="SvgjsTspan1365" style="text-decoration:;">1</tspan></tspan></text></g></g><g id="SvgjsG1366" transform="translate(108.01040649414062,108.01301002502441)"><path id="SvgjsPath1367" d="M 0 0L 25 0L 25 21L 0 21Z" stroke="none" fill="none"></path><g id="SvgjsG1368"><text id="SvgjsText1369" font-family="微软雅黑" text-anchor="middle" font-size="13px" width="25px" fill="#323232" font-weight="400" align="middle" anchor="middle" family="微软雅黑" size="13px" weight="400" font-style="" opacity="1" y="0.55" transform="rotate(0)"><tspan id="SvgjsTspan1370" dy="16" x="12.5"><tspan id="SvgjsTspan1371" style="text-decoration:;">1</tspan></tspan></text></g></g><g id="SvgjsG1372" transform="translate(148.01040649414062,196.0130100250244)"><path id="SvgjsPath1373" d="M 0 0L 21 0L 21 24L 0 24Z" stroke="none" fill="none"></path><g id="SvgjsG1374"><text id="SvgjsText1375" font-family="微软雅黑" text-anchor="middle" font-size="13px" width="21px" fill="#323232" font-weight="400" align="middle" anchor="middle" family="微软雅黑" size="13px" weight="400" font-style="" opacity="1" y="2.05" transform="rotate(0)"><tspan id="SvgjsTspan1376" dy="16" x="10.5"><tspan id="SvgjsTspan1377" style="text-decoration:;">1</tspan></tspan></text></g></g><g id="SvgjsG1378" transform="translate(899.0104064941406,242.01301765441895)"><path id="SvgjsPath1379" d="M 0 0L 26 0L 26 31L 0 31Z" stroke="none" fill="none"></path><g id="SvgjsG1380"><text id="SvgjsText1381" font-family="微软雅黑" text-anchor="middle" font-size="13px" width="26px" fill="#323232" font-weight="400" align="middle" anchor="middle" family="微软雅黑" size="13px" weight="400" font-style="" opacity="1" y="5.55" transform="rotate(0)"><tspan id="SvgjsTspan1382" dy="16" x="13"><tspan id="SvgjsTspan1383" style="text-decoration:;">1</tspan></tspan></text></g></g><g id="SvgjsG1384" transform="translate(631.0104064941406,285.5130100250244)"><path id="SvgjsPath1385" d="M 0 0L 30 0L 30 27L 0 27Z" stroke="none" fill="none"></path><g id="SvgjsG1386"><text id="SvgjsText1387" font-family="微软雅黑" text-anchor="middle" font-size="13px" width="30px" fill="#323232" font-weight="400" align="middle" anchor="middle" family="微软雅黑" size="13px" weight="400" font-style="" opacity="1" y="3.55" transform="rotate(0)"><tspan id="SvgjsTspan1388" dy="16" x="15"><tspan id="SvgjsTspan1389" style="text-decoration:;">1</tspan></tspan></text></g></g><g id="SvgjsG1390" transform="translate(558.0104064941406,200.01301765441895)"><path id="SvgjsPath1391" d="M 0 0L 26 0L 26 28L 0 28Z" stroke="none" fill="none"></path><g id="SvgjsG1392"><text id="SvgjsText1393" font-family="微软雅黑" text-anchor="middle" font-size="13px" width="26px" fill="#323232" font-weight="400" align="middle" anchor="middle" family="微软雅黑" size="13px" weight="400" font-style="" opacity="1" y="4.05" transform="rotate(0)"><tspan id="SvgjsTspan1394" dy="16" x="13"><tspan id="SvgjsTspan1395" style="text-decoration:;">1</tspan></tspan></text></g></g><g id="SvgjsG1396" transform="translate(646.0104064941406,61.013017654418945)"><path id="SvgjsPath1397" d="M 0 0L 25 0L 25 26L 0 26Z" stroke="none" fill="none"></path><g id="SvgjsG1398"><text id="SvgjsText1399" font-family="微软雅黑" text-anchor="middle" font-size="13px" width="25px" fill="#323232" font-weight="400" align="middle" anchor="middle" family="微软雅黑" size="13px" weight="400" font-style="" opacity="1" y="3.05" transform="rotate(0)"><tspan id="SvgjsTspan1400" dy="16" x="12.5"><tspan id="SvgjsTspan1401" style="text-decoration:;">0..*</tspan></tspan></text></g></g><g id="SvgjsG1402" transform="translate(455.0104064941406,258.01301765441895)"><path id="SvgjsPath1403" d="M 0 0L 31 0L 31 23L 0 23Z" stroke="none" fill="none"></path><g id="SvgjsG1404"><text id="SvgjsText1405" font-family="微软雅黑" text-anchor="middle" font-size="13px" width="31px" fill="#323232" font-weight="400" align="middle" anchor="middle" family="微软雅黑" size="13px" weight="400" font-style="" opacity="1" y="1.55" transform="rotate(0)"><tspan id="SvgjsTspan1406" dy="16" x="15.5"><tspan id="SvgjsTspan1407" style="text-decoration:;">1</tspan></tspan></text></g></g><g id="SvgjsG1408" transform="translate(454.0104064941406,296.01301765441895)"><path id="SvgjsPath1409" d="M 0 0L 34 0L 34 25L 0 25Z" stroke="none" fill="none"></path><g id="SvgjsG1410"><text id="SvgjsText1411" font-family="微软雅黑" text-anchor="middle" font-size="13px" width="34px" fill="#323232" font-weight="400" align="middle" anchor="middle" family="微软雅黑" size="13px" weight="400" font-style="" opacity="1" y="2.55" transform="rotate(0)"><tspan id="SvgjsTspan1412" dy="16" x="17"><tspan id="SvgjsTspan1413" style="text-decoration:;">0..*</tspan></tspan></text></g></g><g id="SvgjsG1414" transform="translate(405.0104064941406,48.013017654418945)"><path id="SvgjsPath1415" d="M 0 0L 27 0L 27 32L 0 32Z" stroke="none" fill="none"></path><g id="SvgjsG1416"><text id="SvgjsText1417" font-family="微软雅黑" text-anchor="middle" font-size="13px" width="27px" fill="#323232" font-weight="400" align="middle" anchor="middle" family="微软雅黑" size="13px" weight="400" font-style="" opacity="1" y="6.05" transform="rotate(0)"><tspan id="SvgjsTspan1418" dy="16" x="13.5"><tspan id="SvgjsTspan1419" style="text-decoration:;">1</tspan></tspan></text></g></g><g id="SvgjsG1420" transform="translate(259.0104064941406,128.01301765441895)"><path id="SvgjsPath1421" d="M 0 0L 23 0L 23 31L 0 31Z" stroke="none" fill="none"></path><g id="SvgjsG1422"><text id="SvgjsText1423" font-family="微软雅黑" text-anchor="middle" font-size="13px" width="23px" fill="#323232" font-weight="400" align="middle" anchor="middle" family="微软雅黑" size="13px" weight="400" font-style="" opacity="1" y="5.55" transform="rotate(0)"><tspan id="SvgjsTspan1424" dy="16" x="11.5"><tspan id="SvgjsTspan1425" style="text-decoration:;">1</tspan></tspan></text></g></g><g id="SvgjsG1426" transform="translate(300.0104064941406,82.01301765441895)"><path id="SvgjsPath1427" d="M 0 0L 23 0L 23 32L 0 32Z" stroke="none" fill="none"></path><g id="SvgjsG1428"><text id="SvgjsText1429" font-family="微软雅黑" text-anchor="middle" font-size="13px" width="23px" fill="#323232" font-weight="400" align="middle" anchor="middle" family="微软雅黑" size="13px" weight="400" font-style="" opacity="1" y="6.05" transform="rotate(0)"><tspan id="SvgjsTspan1430" dy="16" x="11.5"><tspan id="SvgjsTspan1431" style="text-decoration:;">1</tspan></tspan></text></g></g><g id="SvgjsG1432" transform="translate(300.0104064941406,183.01301765441895)"><path id="SvgjsPath1433" d="M 0 0L 30 0L 30 34L 0 34Z" stroke="none" fill="none"></path><g id="SvgjsG1434"><text id="SvgjsText1435" font-family="微软雅黑" text-anchor="middle" font-size="13px" width="30px" fill="#323232" font-weight="400" align="middle" anchor="middle" family="微软雅黑" size="13px" weight="400" font-style="" opacity="1" y="7.05" transform="rotate(0)"><tspan id="SvgjsTspan1436" dy="16" x="15"><tspan id="SvgjsTspan1437" style="text-decoration:;">1</tspan></tspan></text></g></g></svg>