<svg id="SvgjsSvg1438" width="951" height="525.0052337646484" xmlns="http://www.w3.org/2000/svg" version="1.1" xmlns:xlink="http://www.w3.org/1999/xlink" xmlns:svgjs="http://svgjs.com/svgjs"><defs id="SvgjsDefs1439"><marker id="SvgjsMarker1536" markerWidth="16" markerHeight="12" refX="0" refY="6" viewBox="0 0 16 12" orient="auto" markerUnits="userSpaceOnUse" stroke-dasharray="0,0"><path id="SvgjsPath1537" d="M1,6 L15,1 L15,11L1,6" fill="#ffffff" stroke="#323232" stroke-width="2"></path></marker><marker id="SvgjsMarker1540" markerWidth="20" markerHeight="12" refX="0" refY="6" viewBox="0 0 20 12" orient="auto" markerUnits="userSpaceOnUse" stroke-dasharray="0,0"><path id="SvgjsPath1541" d="M2,6 L10,2 L18,6 L10,10L2,6" fill="#ffffff" stroke="#323232" stroke-width="2"></path></marker><marker id="SvgjsMarker1544" markerWidth="20" markerHeight="12" refX="20" refY="6" viewBox="0 0 20 12" orient="auto" markerUnits="userSpaceOnUse" stroke-dasharray="0,0"><path id="SvgjsPath1545" d="M2,6 L10,2 L18,6 L10,10L2,6" fill="#ffffff" stroke="#323232" stroke-width="2"></path></marker><marker id="SvgjsMarker1548" markerWidth="20" markerHeight="12" refX="20" refY="6" viewBox="0 0 20 12" orient="auto" markerUnits="userSpaceOnUse" stroke-dasharray="0,0"><path id="SvgjsPath1549" d="M2,6 L10,2 L18,6 L10,10L2,6" fill="#ffffff" stroke="#323232" stroke-width="2"></path></marker><marker id="SvgjsMarker1552" markerWidth="20" markerHeight="12" refX="20" refY="6" viewBox="0 0 20 12" orient="auto" markerUnits="userSpaceOnUse" stroke-dasharray="0,0"><path id="SvgjsPath1553" d="M2,6 L10,2 L18,6 L10,10L2,6" fill="#ffffff" stroke="#323232" stroke-width="2"></path></marker></defs><g id="SvgjsG1440" transform="translate(328.0104064941406,319.0130100250244)"><path id="SvgjsPath1441" d="M 0 4Q 0 0 4 0L 226 0Q 230 0 230 4L 230 137Q 230 141 226 141L 4 141Q 0 141 0 137Z" stroke="rgba(50,50,50,1)" stroke-width="2" fill-opacity="1" fill="#ffffff"></path><path id="SvgjsPath1442" d="M 0 30L 230 30" stroke="rgba(50,50,50,1)" stroke-width="2" fill="none"></path><path id="SvgjsPath1443" d="M 0 0L 230 0L 230 141L 0 141Z" stroke="none" fill="none"></path><g id="SvgjsG1444"><text id="SvgjsText1445" font-family="微软雅黑" text-anchor="middle" font-size="13px" width="210px" fill="#323232" font-weight="700" align="middle" anchor="middle" family="微软雅黑" size="13px" weight="700" font-style="" opacity="1" y="5.05" transform="rotate(0)"><tspan id="SvgjsTspan1446" dy="16" x="115"><tspan id="SvgjsTspan1447" style="text-decoration:;">Course</tspan></tspan></text></g><g id="SvgjsG1448"><text id="SvgjsText1449" font-family="微软雅黑" text-anchor="start" font-size="13px" width="210px" fill="#323232" font-weight="400" align="middle" anchor="start" family="微软雅黑" size="13px" weight="400" font-style="" opacity="1" y="28.05" transform="rotate(0)"><tspan id="SvgjsTspan1450" dy="16" x="10"><tspan id="SvgjsTspan1451" style="text-decoration:;">Name</tspan></tspan><tspan id="SvgjsTspan1452" dy="16" x="10"><tspan id="SvgjsTspan1453" style="text-decoration:;">type</tspan></tspan><tspan id="SvgjsTspan1454" dy="16" x="10"><tspan id="SvgjsTspan1455" style="text-decoration:;">introduction</tspan></tspan><tspan id="SvgjsTspan1456" dy="16" x="10"><tspan id="SvgjsTspan1457" style="text-decoration:;">school</tspan></tspan><tspan id="SvgjsTspan1458" dy="16" x="10"><tspan id="SvgjsTspan1459" style="text-decoration:;">creation time</tspan></tspan><tspan id="SvgjsTspan1460" dy="16" x="10"><tspan id="SvgjsTspan1461" style="text-decoration:;">price</tspan></tspan><tspan id="SvgjsTspan1462" dy="16" x="10"><tspan id="SvgjsTspan1463" style="text-decoration:;">teacher </tspan></tspan></text></g></g><g id="SvgjsG1464" transform="translate(25.010406494140625,25.013010025024414)"><path id="SvgjsPath1465" d="M 0 4Q 0 0 4 0L 226 0Q 230 0 230 4L 230 56Q 230 60 226 60L 4 60Q 0 60 0 56Z" stroke="rgba(50,50,50,1)" stroke-width="2" fill-opacity="1" fill="#ffffff"></path><path id="SvgjsPath1466" d="M 0 30L 230 30" stroke="rgba(50,50,50,1)" stroke-width="2" fill="none"></path><path id="SvgjsPath1467" d="M 0 0L 230 0L 230 60L 0 60Z" stroke="none" fill="none"></path><g id="SvgjsG1468"><text id="SvgjsText1469" font-family="微软雅黑" text-anchor="middle" font-size="13px" width="210px" fill="#323232" font-weight="700" align="middle" anchor="middle" family="微软雅黑" size="13px" weight="700" font-style="" opacity="1" y="5.05" transform="rotate(0)"><tspan id="SvgjsTspan1470" dy="16" x="115"><tspan id="SvgjsTspan1471" style="text-decoration:;">User</tspan></tspan></text></g><g id="SvgjsG1472"><text id="SvgjsText1473" font-family="微软雅黑" text-anchor="start" font-size="13px" width="210px" fill="#323232" font-weight="400" align="middle" anchor="start" family="微软雅黑" size="13px" weight="400" font-style="" opacity="1" y="35.05" transform="rotate(0)"><tspan id="SvgjsTspan1474" dy="16" x="10"><tspan id="SvgjsTspan1475" style="text-decoration:;">User Information</tspan></tspan></text></g></g><g id="SvgjsG1476" transform="translate(25.010406494140625,134.0130100250244)"><path id="SvgjsPath1477" d="M 0 4Q 0 0 4 0L 226 0Q 230 0 230 4L 230 58Q 230 62 226 62L 4 62Q 0 62 0 58Z" stroke="rgba(50,50,50,1)" stroke-width="2" fill-opacity="1" fill="#ffffff"></path><path id="SvgjsPath1478" d="M 0 30L 230 30" stroke="rgba(50,50,50,1)" stroke-width="2" fill="none"></path><path id="SvgjsPath1479" d="M 0 0L 230 0L 230 62L 0 62Z" stroke="none" fill="none"></path><g id="SvgjsG1480"><text id="SvgjsText1481" font-family="微软雅黑" text-anchor="middle" font-size="13px" width="210px" fill="#323232" font-weight="700" align="middle" anchor="middle" family="微软雅黑" size="13px" weight="700" font-style="" opacity="1" y="5.05" transform="rotate(0)"><tspan id="SvgjsTspan1482" dy="16" x="115"><tspan id="SvgjsTspan1483" style="text-decoration:;">Student</tspan></tspan></text></g><g id="SvgjsG1484"><text id="SvgjsText1485" font-family="微软雅黑" text-anchor="start" font-size="13px" width="210px" fill="#323232" font-weight="400" align="middle" anchor="start" family="微软雅黑" size="13px" weight="400" font-style="" opacity="1" y="28.05" transform="rotate(0)"><tspan id="SvgjsTspan1486" dy="16" x="10"><tspan id="SvgjsTspan1487" style="text-decoration:;">Course List</tspan></tspan><tspan id="SvgjsTspan1488" dy="16" x="10"><tspan id="SvgjsTspan1489" style="text-decoration:;">Order List</tspan></tspan></text></g></g><g id="SvgjsG1490" transform="translate(666.0104064941406,85.01301002502441)"><path id="SvgjsPath1491" d="M 0 4Q 0 0 4 0L 226 0Q 230 0 230 4L 230 105Q 230 109 226 109L 4 109Q 0 109 0 105Z" stroke="rgba(50,50,50,1)" stroke-width="2" fill-opacity="1" fill="#ffffff"></path><path id="SvgjsPath1492" d="M 0 30L 230 30" stroke="rgba(50,50,50,1)" stroke-width="2" fill="none"></path><path id="SvgjsPath1493" d="M 0 0L 230 0L 230 109L 0 109Z" stroke="none" fill="none"></path><g id="SvgjsG1494"><text id="SvgjsText1495" font-family="微软雅黑" text-anchor="middle" font-size="13px" width="210px" fill="#323232" font-weight="700" align="middle" anchor="middle" family="微软雅黑" size="13px" weight="700" font-style="" opacity="1" y="5.05" transform="rotate(0)"><tspan id="SvgjsTspan1496" dy="16" x="115"><tspan id="SvgjsTspan1497" style="text-decoration:;">Order</tspan></tspan></text></g><g id="SvgjsG1498"><text id="SvgjsText1499" font-family="微软雅黑" text-anchor="start" font-size="13px" width="210px" fill="#323232" font-weight="400" align="middle" anchor="start" family="微软雅黑" size="13px" weight="400" font-style="" opacity="1" y="28.05" transform="rotate(0)"><tspan id="SvgjsTspan1500" dy="16" x="10"><tspan id="SvgjsTspan1501" style="text-decoration:;">Price</tspan></tspan><tspan id="SvgjsTspan1502" dy="16" x="10"><tspan id="SvgjsTspan1503" style="text-decoration:;">Course Id</tspan></tspan><tspan id="SvgjsTspan1504" dy="16" x="10"><tspan id="SvgjsTspan1505" style="text-decoration:;">Course Name</tspan></tspan><tspan id="SvgjsTspan1506" dy="16" x="10"><tspan id="SvgjsTspan1507" style="text-decoration:;">Creation Time</tspan></tspan><tspan id="SvgjsTspan1508" dy="16" x="10"><tspan id="SvgjsTspan1509" style="text-decoration:;">Status Information</tspan></tspan></text></g></g><g id="SvgjsG1510" transform="translate(328.0104064941406,196.0130100250244)"><path id="SvgjsPath1511" d="M 0 4Q 0 0 4 0L 226 0Q 230 0 230 4L 230 56Q 230 60 226 60L 4 60Q 0 60 0 56Z" stroke="rgba(50,50,50,1)" stroke-width="2" fill-opacity="1" fill="#ffffff"></path><path id="SvgjsPath1512" d="M 0 30L 230 30" stroke="rgba(50,50,50,1)" stroke-width="2" fill="none"></path><path id="SvgjsPath1513" d="M 0 0L 230 0L 230 60L 0 60Z" stroke="none" fill="none"></path><g id="SvgjsG1514"><text id="SvgjsText1515" font-family="微软雅黑" text-anchor="middle" font-size="13px" width="210px" fill="#323232" font-weight="700" align="middle" anchor="middle" family="微软雅黑" size="13px" weight="700" font-style="" opacity="1" y="5.05" transform="rotate(0)"><tspan id="SvgjsTspan1516" dy="16" x="115"><tspan id="SvgjsTspan1517" style="text-decoration:;">Course List</tspan></tspan></text></g><g id="SvgjsG1518"><text id="SvgjsText1519" font-family="微软雅黑" text-anchor="start" font-size="13px" width="210px" fill="#323232" font-weight="400" align="middle" anchor="start" family="微软雅黑" size="13px" weight="400" font-style="" opacity="1" y="35.05" transform="rotate(0)"><tspan id="SvgjsTspan1520" dy="16" x="10"><tspan id="SvgjsTspan1521" style="text-decoration:;">+Course</tspan></tspan></text></g></g><g id="SvgjsG1522" transform="translate(328.0104064941406,85.01301002502441)"><path id="SvgjsPath1523" d="M 0 4Q 0 0 4 0L 226 0Q 230 0 230 4L 230 56Q 230 60 226 60L 4 60Q 0 60 0 56Z" stroke="rgba(50,50,50,1)" stroke-width="2" fill-opacity="1" fill="#ffffff"></path><path id="SvgjsPath1524" d="M 0 30L 230 30" stroke="rgba(50,50,50,1)" stroke-width="2" fill="none"></path><path id="SvgjsPath1525" d="M 0 0L 230 0L 230 60L 0 60Z" stroke="none" fill="none"></path><g id="SvgjsG1526"><text id="SvgjsText1527" font-family="微软雅黑" text-anchor="middle" font-size="13px" width="210px" fill="#323232" font-weight="700" align="middle" anchor="middle" family="微软雅黑" size="13px" weight="700" font-style="" opacity="1" y="5.05" transform="rotate(0)"><tspan id="SvgjsTspan1528" dy="16" x="115"><tspan id="SvgjsTspan1529" style="text-decoration:;">Order List</tspan></tspan></text></g><g id="SvgjsG1530"><text id="SvgjsText1531" font-family="微软雅黑" text-anchor="start" font-size="13px" width="210px" fill="#323232" font-weight="400" align="middle" anchor="start" family="微软雅黑" size="13px" weight="400" font-style="" opacity="1" y="35.05" transform="rotate(0)"><tspan id="SvgjsTspan1532" dy="16" x="10"><tspan id="SvgjsTspan1533" style="text-decoration:;">+Order</tspan></tspan></text></g></g><g id="SvgjsG1534"><path id="SvgjsPath1535" d="M140.01040649414062 85.01301002502441L140.01040649414062 109.51301002502441L140.01040649414062 109.51301002502441L140.01040649414062 134.0130100250244" stroke="#323232" stroke-width="2" fill="none" marker-start="url(#SvgjsMarker1536)"></path></g><g id="SvgjsG1538"><path id="SvgjsPath1539" d="M255.01040649414062 165.0130100250244L291.5104064941406 165.0130100250244L291.5104064941406 115.01301002502441L328.0104064941406 115.01301002502441" stroke="#323232" stroke-width="2" fill="none" marker-start="url(#SvgjsMarker1540)"></path></g><g id="SvgjsG1542"><path id="SvgjsPath1543" d="M328.0104064941406 226.0130100250244L291.5104064941406 226.0130100250244L291.5104064941406 165.0130100250244L255.01040649414062 165.0130100250244" stroke="#323232" stroke-width="2" fill="none" marker-end="url(#SvgjsMarker1544)"></path></g><g id="SvgjsG1546"><path id="SvgjsPath1547" d="M666.0104064941406 115.01301002502441L636.0104064941406 115.01301002502441L636.0104064941406 55.013010025024414L443.0104064941406 55.013010025024414L443.0104064941406 85.01301002502441" stroke="#323232" stroke-width="2" fill="none" marker-end="url(#SvgjsMarker1548)"></path></g><g id="SvgjsG1550"><path id="SvgjsPath1551" d="M443.0104064941406 319.0130100250244L443.0104064941406 287.5130100250244L443.0104064941406 287.5130100250244L443.0104064941406 256.0130100250244" stroke="#323232" stroke-width="2" fill="none" marker-end="url(#SvgjsMarker1552)"></path></g><g id="SvgjsG1554" transform="translate(666.0104064941406,252.5130100250244)"><path id="SvgjsPath1555" d="M 0 4Q 0 0 4 0L 226 0Q 230 0 230 4L 230 56Q 230 60 226 60L 4 60Q 0 60 0 56Z" stroke="rgba(50,50,50,1)" stroke-width="2" fill-opacity="1" fill="#ffffff"></path><path id="SvgjsPath1556" d="M 0 30L 230 30" stroke="rgba(50,50,50,1)" stroke-width="2" fill="none"></path><path id="SvgjsPath1557" d="M 0 0L 230 0L 230 60L 0 60Z" stroke="none" fill="none"></path><g id="SvgjsG1558"><text id="SvgjsText1559" font-family="微软雅黑" text-anchor="middle" font-size="13px" width="210px" fill="#323232" font-weight="700" align="middle" anchor="middle" family="微软雅黑" size="13px" weight="700" font-style="" opacity="1" y="5.05" transform="rotate(0)"><tspan id="SvgjsTspan1560" dy="16" x="115"><tspan id="SvgjsTspan1561" style="text-decoration:;">View Course List</tspan></tspan></text></g><g id="SvgjsG1562"><text id="SvgjsText1563" font-family="微软雅黑" text-anchor="start" font-size="13px" width="210px" fill="#323232" font-weight="400" align="middle" anchor="start" family="微软雅黑" size="13px" weight="400" font-style="" opacity="1" y="35.05" transform="rotate(0)"></text></g></g><g id="SvgjsG1564"><path id="SvgjsPath1565" d="M666.0104064941406 282.5130100250244L612.0104064941406 282.5130100250244L612.0104064941406 115.01301002502441L558.0104064941406 115.01301002502441" stroke="#323232" stroke-width="2" fill="none"></path><rect id="SvgjsRect1566" width="22" height="16" x="601.0104064941406" y="190.7630100250244" fill="#ffffff"></rect><text id="SvgjsText1567" font-family="微软雅黑" text-anchor="middle" font-size="13px" width="22px" fill="#323232" font-weight="400" align="top" anchor="middle" family="微软雅黑" size="13px" weight="400" font-style="" opacity="1" y="188.81301002502443" transform="rotate(0)"><tspan id="SvgjsTspan1568" dy="16" x="612.0104064941406"><tspan id="SvgjsTspan1569" style="text-decoration:;">use</tspan></tspan></text></g><g id="SvgjsG1570"><path id="SvgjsPath1571" d="M140.01040649414062 196.0130100250244L140.01040649414062 500.2630100250244L926.0104064941406 500.2630100250244L926.0104064941406 282.5130100250244L896.0104064941406 282.5130100250244" stroke="#323232" stroke-width="2" fill="none"></path><rect id="SvgjsRect1572" width="53" height="16" x="478.2604064941406" y="492.2630100250244" fill="#ffffff"></rect><text id="SvgjsText1573" font-family="微软雅黑" text-anchor="middle" font-size="13px" width="53px" fill="#323232" font-weight="400" align="top" anchor="middle" family="微软雅黑" size="13px" weight="400" font-style="" opacity="1" y="490.3130100250244" transform="rotate(0)"><tspan id="SvgjsTspan1574" dy="16" x="504.7604064941406"><tspan id="SvgjsTspan1575" style="text-decoration:;">involved</tspan></tspan></text></g><g id="SvgjsG1576" transform="translate(146.01040649414062,86.01301002502441)"><path id="SvgjsPath1577" d="M 0 0L 24 0L 24 28L 0 28Z" stroke="none" fill="none"></path><g id="SvgjsG1578"><text id="SvgjsText1579" font-family="微软雅黑" text-anchor="middle" font-size="13px" width="24px" fill="#323232" font-weight="400" align="middle" anchor="middle" family="微软雅黑" size="13px" weight="400" font-style="" opacity="1" y="4.05" transform="rotate(0)"><tspan id="SvgjsTspan1580" dy="16" x="12"><tspan id="SvgjsTspan1581" style="text-decoration:;">1</tspan></tspan></text></g></g><g id="SvgjsG1582" transform="translate(108.01040649414062,108.01301002502441)"><path id="SvgjsPath1583" d="M 0 0L 25 0L 25 21L 0 21Z" stroke="none" fill="none"></path><g id="SvgjsG1584"><text id="SvgjsText1585" font-family="微软雅黑" text-anchor="middle" font-size="13px" width="25px" fill="#323232" font-weight="400" align="middle" anchor="middle" family="微软雅黑" size="13px" weight="400" font-style="" opacity="1" y="0.55" transform="rotate(0)"><tspan id="SvgjsTspan1586" dy="16" x="12.5"><tspan id="SvgjsTspan1587" style="text-decoration:;">1</tspan></tspan></text></g></g><g id="SvgjsG1588" transform="translate(148.01040649414062,196.0130100250244)"><path id="SvgjsPath1589" d="M 0 0L 21 0L 21 24L 0 24Z" stroke="none" fill="none"></path><g id="SvgjsG1590"><text id="SvgjsText1591" font-family="微软雅黑" text-anchor="middle" font-size="13px" width="21px" fill="#323232" font-weight="400" align="middle" anchor="middle" family="微软雅黑" size="13px" weight="400" font-style="" opacity="1" y="2.05" transform="rotate(0)"><tspan id="SvgjsTspan1592" dy="16" x="10.5"><tspan id="SvgjsTspan1593" style="text-decoration:;">1</tspan></tspan></text></g></g><g id="SvgjsG1594" transform="translate(899.0104064941406,242.01301765441895)"><path id="SvgjsPath1595" d="M 0 0L 26 0L 26 31L 0 31Z" stroke="none" fill="none"></path><g id="SvgjsG1596"><text id="SvgjsText1597" font-family="微软雅黑" text-anchor="middle" font-size="13px" width="26px" fill="#323232" font-weight="400" align="middle" anchor="middle" family="微软雅黑" size="13px" weight="400" font-style="" opacity="1" y="5.55" transform="rotate(0)"><tspan id="SvgjsTspan1598" dy="16" x="13"><tspan id="SvgjsTspan1599" style="text-decoration:;">1</tspan></tspan></text></g></g><g id="SvgjsG1600" transform="translate(631.0104064941406,285.5130100250244)"><path id="SvgjsPath1601" d="M 0 0L 30 0L 30 27L 0 27Z" stroke="none" fill="none"></path><g id="SvgjsG1602"><text id="SvgjsText1603" font-family="微软雅黑" text-anchor="middle" font-size="13px" width="30px" fill="#323232" font-weight="400" align="middle" anchor="middle" family="微软雅黑" size="13px" weight="400" font-style="" opacity="1" y="3.55" transform="rotate(0)"><tspan id="SvgjsTspan1604" dy="16" x="15"><tspan id="SvgjsTspan1605" style="text-decoration:;">1</tspan></tspan></text></g></g><g id="SvgjsG1606" transform="translate(558.0104064941406,84.01301765441895)"><path id="SvgjsPath1607" d="M 0 0L 26 0L 26 28L 0 28Z" stroke="none" fill="none"></path><g id="SvgjsG1608"><text id="SvgjsText1609" font-family="微软雅黑" text-anchor="middle" font-size="13px" width="26px" fill="#323232" font-weight="400" align="middle" anchor="middle" family="微软雅黑" size="13px" weight="400" font-style="" opacity="1" y="4.05" transform="rotate(0)"><tspan id="SvgjsTspan1610" dy="16" x="13"><tspan id="SvgjsTspan1611" style="text-decoration:;">1</tspan></tspan></text></g></g><g id="SvgjsG1612" transform="translate(646.0104064941406,61.013017654418945)"><path id="SvgjsPath1613" d="M 0 0L 25 0L 25 26L 0 26Z" stroke="none" fill="none"></path><g id="SvgjsG1614"><text id="SvgjsText1615" font-family="微软雅黑" text-anchor="middle" font-size="13px" width="25px" fill="#323232" font-weight="400" align="middle" anchor="middle" family="微软雅黑" size="13px" weight="400" font-style="" opacity="1" y="3.05" transform="rotate(0)"><tspan id="SvgjsTspan1616" dy="16" x="12.5"><tspan id="SvgjsTspan1617" style="text-decoration:;">0..*</tspan></tspan></text></g></g><g id="SvgjsG1618" transform="translate(455.0104064941406,258.01301765441895)"><path id="SvgjsPath1619" d="M 0 0L 31 0L 31 23L 0 23Z" stroke="none" fill="none"></path><g id="SvgjsG1620"><text id="SvgjsText1621" font-family="微软雅黑" text-anchor="middle" font-size="13px" width="31px" fill="#323232" font-weight="400" align="middle" anchor="middle" family="微软雅黑" size="13px" weight="400" font-style="" opacity="1" y="1.55" transform="rotate(0)"><tspan id="SvgjsTspan1622" dy="16" x="15.5"><tspan id="SvgjsTspan1623" style="text-decoration:;">1</tspan></tspan></text></g></g><g id="SvgjsG1624" transform="translate(454.0104064941406,296.01301765441895)"><path id="SvgjsPath1625" d="M 0 0L 34 0L 34 25L 0 25Z" stroke="none" fill="none"></path><g id="SvgjsG1626"><text id="SvgjsText1627" font-family="微软雅黑" text-anchor="middle" font-size="13px" width="34px" fill="#323232" font-weight="400" align="middle" anchor="middle" family="微软雅黑" size="13px" weight="400" font-style="" opacity="1" y="2.55" transform="rotate(0)"><tspan id="SvgjsTspan1628" dy="16" x="17"><tspan id="SvgjsTspan1629" style="text-decoration:;">0..*</tspan></tspan></text></g></g><g id="SvgjsG1630" transform="translate(405.0104064941406,48.013017654418945)"><path id="SvgjsPath1631" d="M 0 0L 27 0L 27 32L 0 32Z" stroke="none" fill="none"></path><g id="SvgjsG1632"><text id="SvgjsText1633" font-family="微软雅黑" text-anchor="middle" font-size="13px" width="27px" fill="#323232" font-weight="400" align="middle" anchor="middle" family="微软雅黑" size="13px" weight="400" font-style="" opacity="1" y="6.05" transform="rotate(0)"><tspan id="SvgjsTspan1634" dy="16" x="13.5"><tspan id="SvgjsTspan1635" style="text-decoration:;">1</tspan></tspan></text></g></g><g id="SvgjsG1636" transform="translate(259.0104064941406,128.01301765441895)"><path id="SvgjsPath1637" d="M 0 0L 23 0L 23 31L 0 31Z" stroke="none" fill="none"></path><g id="SvgjsG1638"><text id="SvgjsText1639" font-family="微软雅黑" text-anchor="middle" font-size="13px" width="23px" fill="#323232" font-weight="400" align="middle" anchor="middle" family="微软雅黑" size="13px" weight="400" font-style="" opacity="1" y="5.55" transform="rotate(0)"><tspan id="SvgjsTspan1640" dy="16" x="11.5"><tspan id="SvgjsTspan1641" style="text-decoration:;">1</tspan></tspan></text></g></g><g id="SvgjsG1642" transform="translate(300.0104064941406,82.01301765441895)"><path id="SvgjsPath1643" d="M 0 0L 23 0L 23 32L 0 32Z" stroke="none" fill="none"></path><g id="SvgjsG1644"><text id="SvgjsText1645" font-family="微软雅黑" text-anchor="middle" font-size="13px" width="23px" fill="#323232" font-weight="400" align="middle" anchor="middle" family="微软雅黑" size="13px" weight="400" font-style="" opacity="1" y="6.05" transform="rotate(0)"><tspan id="SvgjsTspan1646" dy="16" x="11.5"><tspan id="SvgjsTspan1647" style="text-decoration:;">1</tspan></tspan></text></g></g><g id="SvgjsG1648" transform="translate(300.0104064941406,183.01301765441895)"><path id="SvgjsPath1649" d="M 0 0L 30 0L 30 34L 0 34Z" stroke="none" fill="none"></path><g id="SvgjsG1650"><text id="SvgjsText1651" font-family="微软雅黑" text-anchor="middle" font-size="13px" width="30px" fill="#323232" font-weight="400" align="middle" anchor="middle" family="微软雅黑" size="13px" weight="400" font-style="" opacity="1" y="7.05" transform="rotate(0)"><tspan id="SvgjsTspan1652" dy="16" x="15"><tspan id="SvgjsTspan1653" style="text-decoration:;">1</tspan></tspan></text></g></g></svg>