<?xml version="1.0" encoding="UTF-8" standalone="no"?><svg xmlns="http://www.w3.org/2000/svg" xmlns:xlink="http://www.w3.org/1999/xlink" contentScriptType="application/ecmascript" contentStyleType="text/css" height="990px" preserveAspectRatio="none" style="width:601px;height:990px;" version="1.1" viewBox="0 0 601 990" width="601px" zoomAndPan="magnify"><defs><filter height="300%" id="f10w0bksgn5e1k" width="300%" x="-1" y="-1"><feGaussianBlur result="blurOut" stdDeviation="2.0"/><feColorMatrix in="blurOut" result="blurOut2" type="matrix" values="0 0 0 0 0 0 0 0 0 0 0 0 0 0 0 0 0 0 .4 0"/><feOffset dx="4.0" dy="4.0" in="blurOut2" result="blurOut3"/><feBlend in="SourceGraphic" in2="blurOut3" mode="normal"/></filter></defs><g><ellipse cx="132" cy="16" fill="#000000" filter="url(#f10w0bksgn5e1k)" rx="10" ry="10" style="stroke:none;stroke-width:1.0;"/><g id="空闲"><rect fill="#FEFECE" filter="url(#f10w0bksgn5e1k)" height="50" rx="12.5" ry="12.5" style="stroke:#A80036;stroke-width:1.5;" width="50" x="107" y="87"/><line style="stroke:#A80036;stroke-width:1.5;" x1="107" x2="157" y1="113.2969" y2="113.2969"/><text fill="#000000" font-family="sans-serif" font-size="14" lengthAdjust="spacing" textLength="28" x="118" y="104.9951">空闲</text></g><g id="开始注册"><rect fill="#FEFECE" filter="url(#f10w0bksgn5e1k)" height="50.2656" rx="12.5" ry="12.5" style="stroke:#A80036;stroke-width:1.5;" width="116" x="11" y="214"/><line style="stroke:#A80036;stroke-width:1.5;" x1="11" x2="127" y1="240.2969" y2="240.2969"/><text fill="#000000" font-family="sans-serif" font-size="14" lengthAdjust="spacing" textLength="56" x="41" y="231.9951">开始注册</text><text fill="#000000" font-family="sans-serif" font-size="12" lengthAdjust="spacing" textLength="96" x="16" y="256.4355">进入用户注册界面</text></g><g id="填写账户信息"><rect fill="#FEFECE" filter="url(#f10w0bksgn5e1k)" height="50.2656" rx="12.5" ry="12.5" style="stroke:#A80036;stroke-width:1.5;" width="296" x="7" y="325"/><line style="stroke:#A80036;stroke-width:1.5;" x1="7" x2="303" y1="351.2969" y2="351.2969"/><text fill="#000000" font-family="sans-serif" font-size="14" lengthAdjust="spacing" textLength="84" x="113" y="342.9951">填写账户信息</text><text fill="#000000" font-family="sans-serif" font-size="12" lengthAdjust="spacing" textLength="276" x="12" y="367.4355">注册电话，用户名，用户密码，用户身份，注册邮箱</text></g><g id="错误提示"><rect fill="#FEFECE" filter="url(#f10w0bksgn5e1k)" height="64.2344" rx="12.5" ry="12.5" style="stroke:#A80036;stroke-width:1.5;" width="127" x="76.5" y="706"/><line style="stroke:#A80036;stroke-width:1.5;" x1="76.5" x2="203.5" y1="732.2969" y2="732.2969"/><text fill="#000000" font-family="sans-serif" font-size="14" lengthAdjust="spacing" textLength="56" x="112" y="723.9951">错误提示</text><text fill="#000000" font-family="sans-serif" font-size="12" lengthAdjust="spacing" textLength="94" x="81.5" y="748.4355">1.字段填写不规范</text><text fill="#000000" font-family="sans-serif" font-size="12" lengthAdjust="spacing" textLength="107" x="81.5" y="762.4043">2.存在重复用户数据</text></g><g id="提交注册"><rect fill="#FEFECE" filter="url(#f10w0bksgn5e1k)" height="50" rx="12.5" ry="12.5" style="stroke:#A80036;stroke-width:1.5;" width="76" x="269" y="452"/><line style="stroke:#A80036;stroke-width:1.5;" x1="269" x2="345" y1="478.2969" y2="478.2969"/><text fill="#000000" font-family="sans-serif" font-size="14" lengthAdjust="spacing" textLength="56" x="279" y="469.9951">提交注册</text></g><g id="系统检查"><rect fill="#FEFECE" filter="url(#f10w0bksgn5e1k)" height="50.2656" rx="12.5" ry="12.5" style="stroke:#A80036;stroke-width:1.5;" width="320" x="208" y="579"/><line style="stroke:#A80036;stroke-width:1.5;" x1="208" x2="528" y1="605.2969" y2="605.2969"/><text fill="#000000" font-family="sans-serif" font-size="14" lengthAdjust="spacing" textLength="56" x="340" y="596.9951">系统检查</text><text fill="#000000" font-family="sans-serif" font-size="12" lengthAdjust="spacing" textLength="300" x="213" y="621.4355">读取用户信息数据库，检查有无重复电话，用户名，邮箱</text></g><g id="存储注册用户数据"><rect fill="#FEFECE" filter="url(#f10w0bksgn5e1k)" height="50.2656" rx="12.5" ry="12.5" style="stroke:#A80036;stroke-width:1.5;" width="348" x="239" y="713"/><line style="stroke:#A80036;stroke-width:1.5;" x1="239" x2="587" y1="739.2969" y2="739.2969"/><text fill="#000000" font-family="sans-serif" font-size="14" lengthAdjust="spacing" textLength="112" x="357" y="730.9951">存储注册用户数据</text><text fill="#000000" font-family="sans-serif" font-size="12" lengthAdjust="spacing" textLength="328" x="244" y="755.4355">注册电话，用户名，用户密码，用户身份，注册邮箱,注册时间</text></g><g id="返回登录界面"><rect fill="#FEFECE" filter="url(#f10w0bksgn5e1k)" height="50" rx="12.5" ry="12.5" style="stroke:#A80036;stroke-width:1.5;" width="104" x="361" y="847"/><line style="stroke:#A80036;stroke-width:1.5;" x1="361" x2="465" y1="873.2969" y2="873.2969"/><text fill="#000000" font-family="sans-serif" font-size="14" lengthAdjust="spacing" textLength="84" x="371" y="864.9951">返回登录界面</text></g><ellipse cx="413" cy="968" filter="url(#f10w0bksgn5e1k)" rx="10" ry="10" style="stroke:#000000;stroke-width:1.0;fill:none;"/><ellipse cx="413.5" cy="968.5" fill="#000000" rx="6" ry="6" style="stroke:none;stroke-width:1.0;"/><!--MD5=[0f7cb50398a34fab2fb2fbdc8f96cee9]
link *start to 空闲--><path d="M132,26.013 C132,38.698 132,62.409 132,81.57 " fill="none" id="*start-to-空闲" style="stroke:#A80036;stroke-width:1.0;"/><polygon fill="#A80036" points="132,86.84,136,77.84,132,81.84,128,77.84,132,86.84" style="stroke:#A80036;stroke-width:1.0;"/><!--MD5=[fcf23e12ea9eb946f58e83aefcf55811]
link 空闲 to 开始注册--><path d="M106.74,125.799 C91.5914,134.992 73.6393,148.941 65,167 C58.8854,179.782 59.0571,195.372 61.1076,208.685 " fill="none" id="空闲-to-开始注册" style="stroke:#A80036;stroke-width:1.0;"/><polygon fill="#A80036" points="62.0132,213.854,64.4001,204.2987,61.1503,208.929,56.5201,205.6793,62.0132,213.854" style="stroke:#A80036;stroke-width:1.0;"/><text fill="#000000" font-family="sans-serif" font-size="13" lengthAdjust="spacing" textLength="104" x="66" y="180.0669">用户开始注册账号</text><!--MD5=[93e3b5bdbcc98163d5f47580fedba97e]
link 开始注册 to 填写账户信息--><path d="M88.0862,264.191 C101.2244,280.843 118.73,303.03 132.541,320.534 " fill="none" id="开始注册-to-填写账户信息" style="stroke:#A80036;stroke-width:1.0;"/><polygon fill="#A80036" points="135.967,324.877,133.5329,315.3337,132.8701,320.9516,127.2522,320.2888,135.967,324.877" style="stroke:#A80036;stroke-width:1.0;"/><!--MD5=[50cfcc90cacaef0cceb4a7f874222866]
link 填写账户信息 to 错误提示--><path d="M132.218,375.238 C103.2717,407.872 54.8156,469.131 36,532 C17.0448,595.335 66.1693,662.542 103.2026,702.09 " fill="none" id="填写账户信息-to-错误提示" style="stroke:#A80036;stroke-width:1.0;"/><polygon fill="#A80036" points="106.7461,705.83,103.4602,696.5455,103.3074,702.2003,97.6526,702.0474,106.7461,705.83" style="stroke:#A80036;stroke-width:1.0;"/><text fill="#000000" font-family="sans-serif" font-size="13" lengthAdjust="spacing" textLength="91" x="37" y="545.0669">填写信息不规范</text><!--MD5=[f0c54fe4418aa4cd5ebc8eb0e0e26e78]
link 错误提示 to 填写账户信息--><path d="M141.213,705.786 C144.05,632.791 151.085,451.745 153.854,380.488 " fill="none" id="错误提示-to-填写账户信息" style="stroke:#A80036;stroke-width:1.0;"/><polygon fill="#A80036" points="154.062,375.146,149.7153,383.9838,153.8677,380.1422,157.7092,384.2946,154.062,375.146" style="stroke:#A80036;stroke-width:1.0;"/><!--MD5=[dc1b72969d9f626462372adad94f3991]
link 填写账户信息 to 提交注册--><path d="M184.307,375.101 C209.961,396.198 247.204,426.826 273.92,448.796 " fill="none" id="填写账户信息-to-提交注册" style="stroke:#A80036;stroke-width:1.0;"/><polygon fill="#A80036" points="277.783,451.973,273.3746,443.1659,273.9219,448.7962,268.2916,449.3435,277.783,451.973" style="stroke:#A80036;stroke-width:1.0;"/><text fill="#000000" font-family="sans-serif" font-size="13" lengthAdjust="spacing" textLength="78" x="242" y="418.0669">用户信息规范</text><!--MD5=[f584729a674ffb3dbbbceab3b5a1e595]
link 填写账户信息 to 空闲--><path d="M164.132,324.98 C176.223,289.427 193.931,221.163 175,167 C171.797,157.836 166.316,149.066 160.32,141.356 " fill="none" id="填写账户信息-to-空闲" style="stroke:#A80036;stroke-width:1.0;"/><polygon fill="#A80036" points="156.946,137.187,159.4983,146.6994,160.0914,141.0737,165.7171,141.6668,156.946,137.187" style="stroke:#A80036;stroke-width:1.0;"/><text fill="#000000" font-family="sans-serif" font-size="13" lengthAdjust="spacing" textLength="78" x="185" y="243.5669">用户取消注册</text><!--MD5=[dc3cae42e6c77e2c9969b1d87e2ec44a]
link 提交注册 to 系统检查--><path d="M318.761,502.101 C328.846,522.766 343.392,552.575 354.06,574.435 " fill="none" id="提交注册-to-系统检查" style="stroke:#A80036;stroke-width:1.0;"/><polygon fill="#A80036" points="356.275,578.973,355.9233,569.1304,354.0825,574.4794,348.7335,572.6385,356.275,578.973" style="stroke:#A80036;stroke-width:1.0;"/><!--MD5=[89fd2604b4f1f5e50810c15ae777dfee]
link 系统检查 to 存储注册用户数据--><path d="M376.254,629.211 C383.834,651.446 395.079,684.432 403.131,708.052 " fill="none" id="系统检查-to-存储注册用户数据" style="stroke:#A80036;stroke-width:1.0;"/><polygon fill="#A80036" points="404.799,712.943,405.6795,703.1336,403.1849,708.2107,398.1078,705.7161,404.799,712.943" style="stroke:#A80036;stroke-width:1.0;"/><text fill="#000000" font-family="sans-serif" font-size="13" lengthAdjust="spacing" textLength="78" x="392" y="672.0669">系统检查通过</text><!--MD5=[2f40a28bb90c27310d7dd5a7ee09b3b7]
link 系统检查 to 错误提示--><path d="M324.4,629.267 C307.936,638.498 289.063,649.161 272,659 C247.035,673.395 219.578,689.565 196.202,703.433 " fill="none" id="系统检查-to-错误提示" style="stroke:#A80036;stroke-width:1.0;"/><polygon fill="#A80036" points="191.886,705.995,201.6669,704.84,196.1854,703.4425,197.5829,697.961,191.886,705.995" style="stroke:#A80036;stroke-width:1.0;"/><text fill="#000000" font-family="sans-serif" font-size="13" lengthAdjust="spacing" textLength="104" x="273" y="672.0669">存在重复账号数据</text><!--MD5=[913a38b07db43a6aeb49d583e7421add]
link 存储注册用户数据 to 返回登录界面--><path d="M413,763.211 C413,785.353 413,818.156 413,841.755 " fill="none" id="存储注册用户数据-to-返回登录界面" style="stroke:#A80036;stroke-width:1.0;"/><polygon fill="#A80036" points="413,846.943,417,837.943,413,841.943,409,837.943,413,846.943" style="stroke:#A80036;stroke-width:1.0;"/><text fill="#000000" font-family="sans-serif" font-size="13" lengthAdjust="spacing" textLength="78" x="414" y="813.0669">用户注册成功</text><!--MD5=[f0fc2819e9ccd9a7f7ccb3662ba744bb]
link 返回登录界面 to *end--><path d="M413,897.2073 C413,914.8423 413,938.1261 413,952.8351 " fill="none" id="返回登录界面-to-*end" style="stroke:#A80036;stroke-width:1.0;"/><polygon fill="#A80036" points="413,957.8399,417,948.8399,413,952.8399,409,948.8399,413,957.8399" style="stroke:#A80036;stroke-width:1.0;"/><!--MD5=[151c95ed6419972495108ca1842da076]
@startuml
[*] - -> 空闲
空闲 - -> 开始注册 : 用户开始注册账号
开始注册 : 进入用户注册界面
开始注册 - -> 填写账户信息
填写账户信息 : 注册电话，用户名，用户密码，用户身份，注册邮箱
填写账户信息 - -> 错误提示 : 填写信息不规范
填写账户信息 - -> 提交注册 : 用户信息规范
填写账户信息 - -> 空闲 : 用户取消注册
提交注册 - -> 系统检查
系统检查: 读取用户信息数据库，检查有无重复电话，用户名，邮箱
系统检查 - -> 存储注册用户数据 : 系统检查通过
存储注册用户数据:注册电话，用户名，用户密码，用户身份，注册邮箱,注册时间
系统检查 - -> 错误提示 : 存在重复账号数据
错误提示 - -> 填写账户信息
错误提示:1.字段填写不规范
错误提示:2.存在重复用户数据
存储注册用户数据 - -> 返回登录界面 : 用户注册成功
返回登录界面 - -> [*]
@enduml

PlantUML version 1.2021.5beta3(Unknown compile time)
(GPL source distribution)
Java Runtime: Java(TM) SE Runtime Environment
JVM: Java HotSpot(TM) 64-Bit Server VM
Default Encoding: UTF-8
Language: en
Country: US
--></g></svg>